<svg xmlns="http://www.w3.org/2000/svg" width="597.624" height="580.473" viewBox="0 0 597.624 580.473"><defs><style>.a,.b{fill:#feeed3;}.b,.d,.f,.g,.h,.i,.j{stroke:#000;}.b,.f,.g,.h,.i{stroke-miterlimit:10;}.c,.g{fill:#0b065a;}.d,.k{fill:#fff;}.d,.f,.g,.h,.i,.j{stroke-linecap:round;}.d,.j{stroke-linejoin:round;}.e,.f{fill:#fcaa23;}.h{fill:#4052f2;}.i,.j{fill:none;}.l{fill:#ea8b00;}</style></defs><g transform="translate(-1103.572 -360.005)"><path class="a" d="M1647.4,834.239q-.9.844-1.82,1.677a162.584,162.584,0,0,1-23.333,17.458,211.278,211.278,0,0,1-26.366,13.816c-6.465,2.852-13.094,5.435-19.817,7.782q-3.973,1.382-7.975,2.658a294.234,294.234,0,0,1-130.527,10.687,298.783,298.783,0,0,1-99.78-32.968q-2.523-1.363-5.024-2.777-2.547-1.45-5.075-2.936c-18.807-11.117-39.633-22.9-60.54-33.734-12.6-6.525-25.242-12.709-37.5-18.2h0l-.844-.377q-2.037-.909-4.057-1.786l-.034-.017h0q-8.7-3.788-17.03-7.03c-81.739-31.658-167.207-201.471-37.12-245.215S1251.4,421.7,1373.7,371.676s93.955,75.954,223.276,92.377S1725.749,760.76,1647.4,834.239Z"/><path class="b" d="M1622.563,1764.779h0l-.843-.377V1635.27h367.092v199" transform="translate(-392.928 -967.076)"/><path class="c" d="M1842.806,999.158c-.5.181-29.691,10.116-25.979,26.825s28.679,33.911,37.113,20.921S1862.881,991.9,1842.806,999.158Z" transform="translate(-540.637 -484.057)"/><path class="d" d="M1950.436,1030.565s-3.035,12.371,1.692,15.406,5.172,19.121,3.485,22.606-36.325,7.086-36.552.114,12.035-40.151,12.035-40.151Z" transform="translate(-618.409 -506.972)"/><path class="d" d="M1941.406,868.021s-4.335,17.6-4.21,20.718c.164,3.975,1.518,12.485-5.242,17.431-8.113,5.94-14.183,8.814-21.677,6.453s-22.064-10.133-23.925-20a14.234,14.234,0,0,1-7.605-8.913c-1.665-6.409,5.053-6.552,7.25-3.625,0,0,.522-14.06,10.1-18.108S1941.406,868.021,1941.406,868.021Z" transform="translate(-587.641 -379.934)"/><path class="e" d="M1930.777,909.3s-15.585,2.223-27.765,2-4.372,21.876-4.372,21.876-8.277-4.442-10.875-13.439c0,0-5.674-2.363-7.286-8.043,0,0-1.878-4.833,1.933-5.341s4.686,1.629,4.686,1.629,2.714-10.851,12.965-10.74S1930.777,909.3,1930.777,909.3Z" transform="translate(-588.803 -407.401)"/><path class="f" d="M2319.52,1113.069s1.759-5.686,4.78-7.637c2.528-1.631,6.112-2.869,10.846.266" transform="translate(-922.093 -564.014)"/><path class="f" d="M2331.85,1118.615s2.588-9.785,8.886-10.068,7.523,5.244,5.624,11.358S2332.853,1127.388,2331.85,1118.615Z" transform="translate(-931.443 -567.637)"/><path class="f" d="M2380.343,1097.982s-.483-2.784,1.658-3.683,3.231,2.552-.394,4.35" transform="translate(-968.182 -556.729)"/><path class="d" d="M2137.428,1133.363s4.2,8.052,4.423,35.83c0,0,10.8-8.1,17.209-13.833s7.535-9.908,5.735-11.762-3.26-6.907-1.912-9.157a3.1,3.1,0,0,0,.674-2.062c-.15-1.049-.749-3.142.751-3.973a3.241,3.241,0,0,1,1.554-2.625s.225-3.487,2.869-3.712,8.1,11.078,11.472,10.8,4.891-3.768,7.25-3.881,6.129,2.361,5.558,4.275-6.917.844-7.815,3.768-5.679,6.859-8.379,10.346-26.318,54.322-36.552,52.971-17.77-14.283-17.77-14.283-1.124-43.075,3.712-47.686A19.748,19.748,0,0,1,2137.428,1133.363Z" transform="translate(-772.597 -577.896)"/><path class="d" d="M2185.649,1317.07s-5.558,4.161-5.51,13.891" transform="translate(-816.396 -725.774)"/><path class="d" d="M2302.3,1137.44s2.081,3.523,4.162,4.761" transform="translate(-909.035 -589.555)"/><path class="d" d="M2295.87,1148.3s2.557,4.65,4.273,5.474" transform="translate(-904.159 -597.79)"/><path class="d" d="M2292.66,1167.54s1.24,4.123,3.333,3.785" transform="translate(-901.724 -612.381)"/><path class="e" d="M2140,1177.57s-4.316,15.467-3.867,29.807-3.833,35.875,14.611,31.528c0,0-2.658,3.366-5.887,3.127s-11.771-5.416-13.05-9.575-2.963-45.066-2.963-45.066Z" transform="translate(-777.494 -619.987)"/><path class="g" d="M2133.569,1118.15s8.311,3.2,10.633,11.672c0,0-9.6,7.2-12.446,17.77S2130.956,1119.747,2133.569,1118.15Z" transform="translate(-778.661 -574.927)"/><path class="g" d="M1948.5,1097.03s-.8,17.995-14.343,15.972-10.392-15.409-10.392-15.409-15.52,30.815-6.861,37.34,29.355,6.073,34.529-5.288,4.611-26.767,4.611-26.767S1948.164,1092.458,1948.5,1097.03Z" transform="translate(-614.786 -558.031)"/><path class="f" d="M1833.986,1162.973c2.7-20.919,2.25-36.552.45-45.325s1.723-30.626-.45-31.678-17.243-7.344-16.192-3.383c0,0-.169,31.847-16.448,33.029s-14.928-22.27-14.928-22.27l-.843-15.52s-21.7-.169-24.348,3.543h0a3.058,3.058,0,0,1,2.356.322c2.16,1.45,3.3,9.362-.44,29.227h0q-.8,4.278-1.933,9.309c-5.959,26.765-25.08,92.223-25.08,92.223l101.445,5.624S1831.289,1183.892,1833.986,1162.973Z" transform="translate(-479.689 -544.347)"/><rect class="h" width="12.371" height="9.278" transform="translate(1304.136 643.257)"/><rect class="h" width="12.371" height="14.79" transform="translate(1314.82 638.307)"/><rect class="h" width="9.222" height="14.79" transform="translate(1357.895 638.307)"/><rect class="h" width="9.222" height="7.395" transform="translate(1371.842 645.702)"/><rect class="h" width="9.222" height="21.876" transform="translate(1364.642 631.222)"/><rect class="b" width="365.292" height="15.914" rx="7.957" transform="translate(1216.189 660.239)"/><path class="c" d="M1909.786,864.194s-10.839-1.677-10.633,9.962c0,0-1.561,1.518-4.592-6.692a8.525,8.525,0,0,0-4.742-2.216s.266-12.294,3.6-16.117,57.05-9.222,56.843,1.692a64.7,64.7,0,0,1-3.492,19.575s3.6-5.967-10.875-7.429A88.856,88.856,0,0,0,1909.786,864.194Z" transform="translate(-596.237 -367.308)"/><ellipse class="f" cx="17.023" cy="40.513" rx="17.023" ry="40.513" transform="translate(1282.209 498.208) rotate(-83.67)"/><path class="f" d="M1861.3,866.6s-.157,8.753,17.018,13.9" transform="translate(-574.61 -384.168)"/><path class="f" d="M2055.53,906.617s25.815.517,29.379-11.257" transform="translate(-721.901 -405.978)"/><path class="f" d="M1900,772.277s4.676,11.09,27.04,15.319,31.726-7.076,31.724-8.067.9-24.573-24.638-29.6C1912.586,745.7,1902.018,756.421,1900,772.277Z" transform="translate(-603.957 -294.99)"/><path class="c" d="M1963.039,1046.875l2.62-9.067a.865.865,0,0,0-.531-1.051l-2.724-1.02a.868.868,0,0,0-1.134.556l-3.19,10.36S1961.253,1050.578,1963.039,1046.875Z" transform="translate(-648.001 -512.388)"/><path class="i" d="M1963.039,1046.875l2.62-9.067a.865.865,0,0,0-.531-1.051l-2.724-1.02a.868.868,0,0,0-1.134.556l-3.19,10.36S1961.253,1050.578,1963.039,1046.875Z" transform="translate(-648.001 -512.388)"/><path class="c" d="M1978.061,1021.706l-2.1,5.708-2.726-1.056,1.834-5.488Z" transform="translate(-659.498 -501.156)"/><path class="i" d="M1978.061,1021.706l-2.1,5.708-2.726-1.056,1.834-5.488Z" transform="translate(-659.498 -501.156)"/><ellipse class="d" cx="11.102" cy="6.801" rx="11.102" ry="6.801" transform="translate(1311.711 518.454) rotate(-73.15)"/><ellipse class="d" cx="10.058" cy="5.746" rx="10.058" ry="5.746" transform="translate(1313.785 516.377) rotate(-73.191)"/><path class="d" d="M1995.3,939.55s5.377,8.565-2.741,17.105a5.95,5.95,0,0,1-1.974,1.39,4.077,4.077,0,0,1-1.564.35" transform="translate(-671.464 -439.488)"/><path class="j" d="M1981.448,933.691s-3.567-3.238-8.035.408-6.056,10.6-4.988,15.036c0,0,1.527,5.442,6.324,5.471" transform="translate(-655.603 -434.04)"/><path class="g" d="M1794.058,1121.775c-2.639-14.761-17.158-16.433-17.158-16.433,3.487-11.644,15.24-13.1,15.24-13.1h0a3.057,3.057,0,0,1,2.356.321C1796.659,1093.988,1797.795,1101.909,1794.058,1121.775Z" transform="translate(-510.607 -555.196)"/><path class="d" d="M1740.611,1062.942s-17.311,24.916-11.687,57.082c0,0,2.361,8.886,13.27,6.525s34.648-35.312,38.667-55.743c0,0,1.984-6.262,5.732-7.762s9.072-5.317,9.908-7.646,1.336-15.906-.087-16.88-4.592-2.071-5.048-1.322-1.087,4.93-2.736,5.829-3.867,1.863-3.929-.085c-.044-1.078.851-3.122.79-4.845a2.191,2.191,0,0,0-4.377,0,7.65,7.65,0,0,0,.017.8c.225,3.074-6.672,3.142-6.672,13.867s-17.787,25.576-17.787,25.576S1755.64,1066.6,1740.611,1062.942Z" transform="translate(-473.372 -512.645)"/><path class="d" d="M1773.17,1244.573s1.073-19.834,17.883-33.413" transform="translate(-507.778 -645.459)"/><rect class="g" width="9.896" height="33.302" transform="translate(1248.577 888.31)"/><rect class="g" width="45.743" height="6.972" transform="translate(1230.809 918.912)"/><circle class="h" cx="87.65" cy="87.65" r="87.65" transform="translate(1126.715 789.284) rotate(-45)"/><path class="k" d="M1868.75,2172.394c.068-1.134,1.96-3.3-.418-3.275,1.075-.967,3-3.881,4.652-1.9,1.8,2.175-1.208,3.5-1.788,5.087-.686,1.851,1.068,3.7,1.423,5.447a9.025,9.025,0,0,1-.2,3.333,87.483,87.483,0,0,0,8.55-35.167c-.051.048-.106.092-.157.143-1.271-1.358-4.178-.694-4.988.674-.135.23.106,1.073-.21,1.552s-.839.317-1.15.626c-.725.725-1.593,1.254-.766,2.417,1.822-.64,1.9,2.216,1.428,3.325-.836,1.933-2.156,2.081-2.226,4.224-.026.831.638,2.5-.353,3.086s-1.45-.14-1.825-.914c-.607-1.247.215-3.142-.858-4.227-2.468,1.155-4.014,4.2-6.436,5.621-1.351.791-1.788.459-1.6,2.156.068.609.6.5.561,1.349a2.719,2.719,0,0,1-.928,1.423c.819.174,1.738.116,2.347.812-1.808-.075-3.161,1.692-4.882,2.134-2.158.561-2.453-.577-4.166-1.145-2.989-.991-3.666,1.9-5.346,3.245-.967.788-2.443.853-3.625,1.395a14.5,14.5,0,0,0-4.444,3.062c-1.486,1.537-2.308,3.419-3.432,5.218-.909,1.45-3.1,3.811-2.564,5.643.324,1.109,2.728,3.2,3.569,4.263s2.477,1.624,2.9,2.815c.411,1.126-.906,2.383.43,3.072.754.389,2.4-.684,3.383-.242,1.585.7,1.506,2.67.967,3.917-.7,1.583-1.356,1.044-2.866,2.016a7.249,7.249,0,0,0-2.484,3.3c-1.107,2.518-1.068,1-3.412,2.117a7.07,7.07,0,0,0,1.368,1.6,12.137,12.137,0,0,1-2.175,2.366c-2.175,1.45-4.928.793-7.04,2.861-1.933,1.89-3.248,5.114-5.43,6.7-1.6,1.157-4.058.587-5.317,2.467,1.431.261,2.963,0,4.4.423a87.644,87.644,0,0,0,47.241-41.325,12.062,12.062,0,0,1-.935-4.833C1869.985,2177,1868.62,2174.552,1868.75,2172.394Z" transform="translate(-542.714 -1353.863)"/><path class="k" d="M1646.97,1814.127c.652.877,1.549,1.692,2.148,2.61.682,1.037.749,2.233,2.059,2.736a3.567,3.567,0,0,0,1.933.089A87.519,87.519,0,0,0,1600.019,1783c2.306,2.441-.814,4.679,3.412,4.386a35.091,35.091,0,0,1,6.237-.3c2.267.263,3.176,2.366,4.833,3.835-.9-.116-5.931-.766-6.259.256-.454,1.4,2.32,1.779-.092,3.05-2.153,1.131-3.47-2.24-5.056-3.509-1.225-.981-2.569-.8-3.867-1.895-1.356-1.15-2.318-2.733-3.625-3.867-2.073-1.829-4.454-1.873-7.008-1.6a18.592,18.592,0,0,0-4.35.483c-1.583.551-2.678,2.175-4.108,2.658-1.237.413-2.417-.425-3.625-.624a21.406,21.406,0,0,0-4.99-.058c-2.506.273-5.525,2.417-8.05,1.015-2.308,1.887,3.772,1.933,4.35,3.275,1.114-.2,2.122-.887,3.32-.694,1.278.208,2.156,1.257,3.509,1.508,2.567.483,4.149-2.252,6.506-.761,1.9,1.208,4.007,2.579,2.74,4.727-.628,1.066-.894.662-1.716,1.491-1.1,1.109-.541.319-.343,1.817.3,2.262-.677,3.743-3.086,4.287-1.143.256-1.332-.1-2.47.549a11.509,11.509,0,0,0-2.832,2.714c-.967,1.107-2.047,2.052-3.084,3.093-1.728,1.733-1.919,2.8-1.559,5.251.273,1.861.831,3.557.133,5.411-.6,1.612-1.991,2.9-2.789,4.4-.831,1.552-.162,7.054,1.571,4.517.894-1.307-.172-2.784,1.141-4.169.532-.561,1.537-1.182,2.156-1.718,2.228,1.175-1.073,3.765-1.45,5.114-.524,1.919.483,4.4.442,6.283-1.228-.4-3.456-.914-4.087.725-.8,2.061,2.1,2.806,3.125,3.816,2.252,2.206,3.1,5.885,3.83,8.874.691,2.84.756,4.217,3.171,6.148a9.773,9.773,0,0,1,3.323,4.606,5.951,5.951,0,0,1,.172,4.079,9.025,9.025,0,0,0-.348,4.853c.222,1.339.022,2.376.933,3.142.628.532,1.878.065,2.523,1.208,1.233,2.175-1.334,3.9-2.849,4.379-1.278.406-2.753,1.088-4.077,1.433-1.692.442-3.838-.822-5.372.408-1.45,1.167-1.4,4.108-2.255,5.7a19.641,19.641,0,0,1-3.108,3.867c-1.788.379-.831,8.5-.674,10.036.242,2.24.7,5.37-.362,7.47a20.879,20.879,0,0,1-2.139,2.593,44.484,44.484,0,0,1-4.142,4.645c-2.175,2.117-5.017,1.982-7.349,3.724-1.873,1.4-2.922,3.724-4.729,5.143-.822.645-1.953,1.568-2.825,2.127s-1.225.217-2,.457c-1.4.43-1.989,1.6-2.477,3.023,2.354.3,1.733,3.308,1.486,4.891-.307,1.986.242,3.383,2.139,4.783-.155-1.187.4-4.055,1.566-4.833,1.706-1.143,4.923-.348,6.767-.909,2-.6,2.936-2.04,5.075-1.146.6.242,1.044.824,1.663,1.056.766.288,1.547.041,2.327.29,2.129.677,2.289,1.179,4.435.111,2.6-1.293,5.595-3.212,8.659-2.7,1.208.2,1.989,1,3.125,1.4,1.242.445,2.086.1,3.287.263a20.1,20.1,0,0,0,5.256.114,29.36,29.36,0,0,0,6.121-1.426,11.487,11.487,0,0,1,3.591-1.034c.573,0,1.146.307,1.8.285,2.506-.077,4.928-1.692,7.378-2.064,1.382-.205,2.417-.075,3.642-.672a5.972,5.972,0,0,0,.3-1.353c.193-.752-.043-1.837.1-2.658.048-.288.527-.88.527-1.112,0-1.863-1.771-4.5-2.975-5.72-1.655-1.677-3.98-4.35-3.652-6.941.242-1.933,3.209-2.248,3.813-3.99.756-2.175-2.131-6.257-2.721-8.374-.408-1.45-.242-2.934-.621-4.4-.573-2.141-1.063-3.263-.242-5.317.5-1.235,1.179-.884.4-2.257-.725-1.271-3.142-1.875-4.379-2.852a10.1,10.1,0,0,1-2.625-2.465c-.725-1.245-.4-3.084-1.266-4.265a8.908,8.908,0,0,0-4.464-2.6c-1.177-.2-2.378.292-3.538-.087-1.67-.549-.926-1.182-1.965-2.334s-2.2-1.085-1.863-3.173c.454-2.83,4.244-5.931,1.653-8.683-.771-.819-2.992-1.607-2.516-3.127.706-2.25,5.3-1.8,6.477-3.835,1.228-2.122-4.169-2.871-5.8-2.593-1.044.177-2.825,1.341-3.908.529-.812-.609-1.421-3.014-1.363-3.975.1-1.672,1.767-3.557,2.772-4.855,1.89-2.448,3.055-2.658,6.189-2.871,2.765-.188,3.173-.048,5.234,1.3,1.264.827,1.614.433,2.083,1.776.225.643-.143,1.59.191,2.313a2.957,2.957,0,0,1,2.985,1.358,7.253,7.253,0,0,1,1.085,4.135c-.145.643-3.25,4.729.242,3.7-.179-1.375.74-1.933,1.092-2.948.336-.967.106-2.211.8-3.231.817-1.189,3.77-2.487,5.148-1.622l.967-1.291c1.486,1.044,6.022-.684,7.214-2.5.6-.906-.312-1.641,1.208-2.342,1.764-.822,2.035.725,3.383,1.52,1.4.831,1.866-.08,3.214.07,1.477.164,1.419,1.039,2.127,1.762,1.324,1.353,2.852,3.354,4.744,1.537.952.669,1.933,1.1,2.448,2.243,1.527-1.4,2.2-2.791,1.723-4.855-.423-1.829-1.692-3.441-2.175-5.276-.3-1.182-.193-2.38-.43-3.557a47.712,47.712,0,0,1-.5-5.447c-.222-2.417-2.9-2.124-4.425-4.014-2.025-2.5-.242-4.108-.7-6.508-.056-.273-.682-.556-.8-.86a8.589,8.589,0,0,1-.128-1.933,7.38,7.38,0,0,1,1.416-4.534c3.949.928,1.312,5.056,1.189,7.335-.056,1.037,1.515,3.185-.834,2.7a24.352,24.352,0,0,1,2.784,2.883,10.009,10.009,0,0,0,.981,1.636,9.775,9.775,0,0,0,1.851-2.658c.259-.421.7-.689.87-1.165.242-.7-.048-1.435.14-2.032.537-1.718,1.25-1.051.624-2.977-.43-1.324-1.172-2.678-1.708-3.951a8,8,0,0,1-.851-2.7,27.386,27.386,0,0,1,.109-3.693c1.353-3.5,3.178,2.535,3.888,3.608a49.536,49.536,0,0,1,3.035,5.587c.759,1.549.532,1.827-.118,3.427-1.172,2.885.926,2.943.894,5.578-.022,1.585-.848,3.7-1.121,5.336-.343,2.073-.74,9.183,2.917,9,1.962-.1,1.711-3.7,2.61-4.734.967-1.107,2.291-1.09,3.574-.981,2.146.181,2.811.048,2.453-2.506-.44-3.142-2.2-5.218-3.71-7.91-1.636-2.917-1-4.833-.416-7.832.911.582,1.786,1.286,2.658,1.96A10.63,10.63,0,0,1,1646.97,1814.127Zm-39.082-5.771c-1.049.51-1.375-.256-2.277-.333-1.387-.123-1.012,2.31-1.965,2.175a4.946,4.946,0,0,1-1.556-1.45c-.44-.812-.215-1.45-.967-2.144-.991-.909-1.8-2.025-.423-3.06.645-.483,1.767-.515,2.086-1.409a5.035,5.035,0,0,0-.114-1.933c-.1-.435-.44-.691-.534-1.046-.213-.8,1.158-1.87,1.933-1.563-1.6,1.752,2.434,2.593,2.221,3.886-.242,1.252-1.559.609-1.375,1.762a3.76,3.76,0,0,0,1.636,1.89c.773.389,2.637.423,2.615,1.643C1609.149,1807.283,1608.3,1808.15,1607.888,1808.356Zm11.1,4.654c.469.781.068.984-.07,1.8-.155.93.529,1.464.59,2.3.118,1.593-2.2,1.368-2.615,2.808-.36,1.259,3.345,7.1-.819,5.157-1.22-.573-1.208-1.692-1.825-2.733a6.161,6.161,0,0,0-3.009-2.257c-2.417-.549-.483,4.4-3.246,3.033-.563-.278-1.9-1.692-1.544-2.368.317-.6.981.034,1.549-.295,2.243-1.3-1.027-2.26-1.5-2.994-.667-1.044,1.075-2.359,2.1-2.064.556.159,1.411,1.153,1.839,1.535.694.628,1.281,1.373,2.023,1.953,1.544-1.017.2-3.531-.708-4.64a3.568,3.568,0,0,1-.885-2.257c-.259-1.346-.766-1.515.81-2.062a9.2,9.2,0,0,1,4.058-.1c.561.172.483.839.819,1.228C1617.228,1811.843,1618.439,1812.1,1618.985,1813.01Z" transform="translate(-329.661 -1079.104)"/><path class="k" d="M1754.871,2062.518c-.483-.938-3.968-2.417-3.625-.665.242,1.208,2.574,2.129,3.267,3.156s2.093,1.73,2.629,2.9c.4.858.191,1.771.725,2.617.66,1.022,1.45,1.095,1.269-.326a11.783,11.783,0,0,0-1.165-2.779,15.454,15.454,0,0,0-.686-2.175C1756.8,2064.453,1754.769,2063.668,1754.871,2062.518Z" transform="translate(-491.134 -1289.95)"/><path class="k" d="M1778.058,2117.5c-1.02-.2-1.82-.563-2.8.06-1.15.725-.582.926.416,1.158a4.3,4.3,0,0,1,2.071.781c.491.508.544,1.252.947,1.793a4.1,4.1,0,0,0,3,1.745c.967.034,1.581-.537.87-1.45a14.9,14.9,0,0,0-2.564-1.875C1779.23,2119.119,1778.114,2118.142,1778.058,2117.5Z" transform="translate(-508.877 -1332.546)"/><path class="k" d="M1467.652,2362.714c-2.417-.36-4.592.184-6.979-.725-2.605-.986-5.36-1.571-8.006-2.607-2.605-1.02-5.894-1.781-8.352-3.164-2.052-1.155-3.187-3.707-4.908-5.229a31.2,31.2,0,0,0-5.962-3.983c-1.45-.785-1.208-.967-1.786-2.156a4.98,4.98,0,0,0-1.068-1.66,22.053,22.053,0,0,1-1.593-1.725c-.783.778-.532,4.067-.336,5.21-5.645-4.43-10.612-10.317-15.31-15.72-1.382-1.59-2.9-1.771-4.555-2.953-1.513-1.085-1.972-2.885-3.325-4.169-1.626-1.544-2.658-1.878-4.311-1.51a87.585,87.585,0,0,0,70.262,42.451,6.439,6.439,0,0,0,.52-.657A25.082,25.082,0,0,0,1467.652,2362.714Z" transform="translate(-225.67 -1487.986)"/><path class="k" d="M1446.721,1843.581a5.28,5.28,0,0,0,2.219-1.8c.508-.882.111-1.141.319-2.032.568-2.46,2.122-1.361,3.383-2.712.725-.785.848-4.174,2.678-3.971.827.092,1.784,2.634,3,3.081,1.054-1.436-.587-2.228-.283-3.589.454-2.03,1.991-1.109,2.934-1.322,3.052-.686,2.127-3.345,3.108-5.317a87.64,87.64,0,0,0-18.732,15.177c-.215.242-.413.483-.626.706C1445.566,1841.814,1446.284,1842.269,1446.721,1843.581Z" transform="translate(-258.704 -1111.652)"/><path class="k" d="M1531.047,1804.971c.836.4,2.052-1.4,2.571-1.723a20.24,20.24,0,0,1,5.4-1.989c2.53-.594,2.605-1.617,4.171-3.765.266-.365.57-.74.872-1.114a87.281,87.281,0,0,0-13.05,6.092C1530.856,1803.357,1530.476,1804.7,1531.047,1804.971Z" transform="translate(-323.937 -1089.251)"/><path class="k" d="M1466.775,1870c-3.736,2-.981,5.35-3.19,7.837-.812.913-4.147,3.56-2.066,5.075,2.349-1,1.361-2.366,3.052-3.746,1.146-.933,2.2-.515,1.839-2.525-.1-.556-.682-1.107-.7-1.617-.029-.689.483-1.119.592-1.692C1466.492,1872.33,1466.238,1871.332,1466.775,1870Z" transform="translate(-270.932 -1145.079)"/><path class="k" d="M1422.273,1911.83c-2.417,1.005-9.763,5.926-7.042,8.7.3.307,1.414.271,1.537.788.094.4-.725.853-.682,1.027.343,1.095.433,1.368,1.9.382,1.162-.781.7-1.293,1.187-2.117a8.5,8.5,0,0,1,1.663-1.812c-1.411-2.156,2.644.9,3.19.031.416-.662-2.467-3.055-2.975-3.3a6.67,6.67,0,0,1,1.5-1.45C1422.215,1913.229,1422.618,1912.415,1422.273,1911.83Z" transform="translate(-235.889 -1176.8)"/><path class="k" d="M1443.686,1956c-1.692-1.392-1.158-3.625-3.565-4.8-.367.375-.853.725-1.184,1.066.541.271,2.931,1.643,1.563,2.477-1.146.7-1.735-2.088-2.74-.423.539.4,1.646.754,2.066,1.261.616.74.536,1.373,1.054,2.124.694,1,.984.466,1.293,1.979a6.258,6.258,0,0,1-.242,3.666c-1.066,2.148-2.434,2.112-.524,4.386.993,1.182,2.223,4.625,3.867,2.719.725,1.358-.6,6.073,1.126,7.09,2.175,1.278,1.3-4.763,1.6-5.063a13.852,13.852,0,0,0,3.816,1.576c.926.2,1.363.768,2.216-.561-.756-.892-1.515-.831-2.332-1.281a10.032,10.032,0,0,1-2.489-2.1,12.538,12.538,0,0,1-3.265-7.144c-.2-1.5-.387-2.772-.665-4.27-.181-.967.094-1.228-.391-2.052A1.428,1.428,0,0,0,1443.686,1956Z" transform="translate(-253.426 -1206.656)"/><path class="k" d="M1408.725,1953.63a41.429,41.429,0,0,0,3.5,3.277c.435.322,1.474.111,1.5.967,0,.312-1.061,1.208-1.349,1.232-1.409.121-5-3.69-3.383-4.974" transform="translate(-231.3 -1208.499)"/><path class="k" d="M1378.773,2016.937c1.774-2.117.74-2.564,1.013-4.722-1.1.532-3.021,1.866-4.263.935-1.834-1.373.227-4.108-.133-5.72-.515-2.306-4.638-4.386-6.208-3.383-1.808-.725-2.479-.177-4.058.44a25.4,25.4,0,0,1-3.465,1.042,10.635,10.635,0,0,1-1.133.174,87.485,87.485,0,0,0-3.495,12.356,2.8,2.8,0,0,0,.384.52c1.3,1.426,3.509.575,4.5,1.771.725.873.034,2.806.184,4,.413,3.272,2.484,7.356,1.083,10.314a13.289,13.289,0,0,0-1.1,4.891c-.169,1.395-1.663,2.745-1.247,4.079a24.483,24.483,0,0,1,4.108-3.383c1.933-1.175,2.678-2.915,4.727-3.625s4.3-.79,5.8-2.658a8.989,8.989,0,0,0,1.5-5.261C1376.839,2023.972,1375.418,2020.932,1378.773,2016.937Z" transform="translate(-192.205 -1246.469)"/><path class="k" d="M1417.51,2177.054c-1.225-.776-2.757,1.588-3.823,2.139-1.5.773-1.805.266-3.321-.556a19.321,19.321,0,0,0-2.9-1.5c-1.619-.531-2.583.317-3.956,1.134,1.286,1.421,3.625.539,5.119,1.45,1.291.788,1.721,2.1,3.3,2.658,3.961,1.4,5.86-2.025,8.357-3.925C1419.591,2177.538,1418.547,2177.509,1417.51,2177.054Z" transform="translate(-227.453 -1377.811)"/><path class="k" d="M1507.15,2133.2c-1.143.483-2.629,2.837-.28,2.772,1.088-.031,2.33-1.45,1.177-2.385-.169.167-.295.143-.5.227" transform="translate(-304.888 -1344.672)"/><path class="k" d="M1539,2177.4c-1.759-.155-.836,3.238.71,2.31,1.119-.672-.06-2.337-.71-2.31" transform="translate(-329.472 -1378.19)"/><path class="k" d="M1556.536,2020.5c-.391,1.012.967,3.415.147,4.988-.744,1.45-1.987,2.161-.35,3.78.725-.858,2.175-1.515,2.463-2.583.13-.483-.375-1.08-.259-1.634.131-.624.711-.87.87-1.38C1559.75,2022.59,1558.22,2017.926,1556.536,2020.5Z" transform="translate(-342.732 -1258.63)"/><circle class="i" cx="87.65" cy="87.65" r="87.65" transform="translate(1126.715 789.284) rotate(-45)"/><path class="g" d="M1564.665,1776.85l-3.122,4.558a95.094,95.094,0,1,1-107.228,156.322l-3.125,4.558a100.6,100.6,0,1,0,113.475-165.438Z" transform="translate(-263.61 -1074.44)"/><path class="d" d="M2832.83,2477.836l2.025,28.454,16.532-4.386s-3.035-18.388-1.518-27.328S2832.83,2477.836,2832.83,2477.836Z" transform="translate(-1311.353 -1601.066)"/><path class="d" d="M3151.85,2451.155s14.171,19.4,16.027,24.292,15.184-8.429,15.184-8.429-7.086-15.52-8.434-23.28S3151.85,2451.155,3151.85,2451.155Z" transform="translate(-1553.276 -1578.488)"/><path class="d" d="M2702.335,1128.965s-2.144,12.581-3.422,25a180.646,180.646,0,0,1-4.993,25.738s9.952,5.4,16.532,3.712S2715.472,1123.6,2702.335,1128.965Z" transform="translate(-1206.013 -582.863)"/><path class="f" d="M2724.8,1670.859s-3.826,78.614-2.924,90.422,9,98.859,9,98.859,18.555,13.159,48.247-3.383c0,0,3.262-43.188,3.318-77.94,0,0,21.651,61.069,25.025,75.915,0,0,19.906,18.219,51.284-7.76,0,0-5.4-45.549-20.919-85.026,0,0,5.061-84.912,2.025-101.331S2724.8,1670.859,2724.8,1670.859Z" transform="translate(-1227.11 -982.244)"/><path class="l" d="M2948.152,1727.063a136.2,136.2,0,0,0,38.154,0c20.754-2.987,0,55.383,8.773,85.917s12.521,86.091,12.521,86.091a50.2,50.2,0,0,0,21.97-12.521s-4.759-33.848-12.325-58.669c0,0-4.833-17.809-8.509-25.617,0,0,4.461-81.683,2.658-91.592S2942.282,1722.29,2948.152,1727.063Z" transform="translate(-1398.531 -1022.302)"/><path class="l" d="M2792.475,1835.547v2.175l-.6,26.62-2.8,48.106a64.609,64.609,0,0,1-17.441,6.7s13.5-170.049-7.422-172.9-28.717-12.083-28.717-12.083v-5.138l46.765,15.111c.278,13.188.725,55.373,3.7,64.863,2.453,7.842,4.99,17.883,6.2,22.789h0Z" transform="translate(-1237.537 -1038.177)"/><path class="g" d="M2719.78,2596.46c-21.286,9.331-34.747,12.153-43.329,3.937-7.7-7.378,16.373-15.293,37.676-37.217-.1.3-3.18,9.908,18.239,6.443a1.327,1.327,0,0,1,1.515,1.561c-.754,4.108.3,8.577.082,11.458C2733.6,2587.617,2741.062,2587.132,2719.78,2596.46Z" transform="translate(-1191.652 -1670.74)"/><path class="g" d="M3152.367,2569.068c-14.983,17.77-25.808,26.248-37.137,22.666-10.169-3.219,7.936-20.953,17.364-50.04.043.312,1.525,10.3,19.208-2.274a1.329,1.329,0,0,1,2.049.725c1.141,4.021,4.055,7.564,5.135,10.244C3160.857,2555.032,3167.338,2551.3,3152.367,2569.068Z" transform="translate(-1523.225 -1652.536)"/><path class="f" d="M2925.68,1755.6s3.383,54.433,2.861,63.007,7.835,33.336,7.835,33.336h0c.416,1.692.669,2.765.713,2.939v.015" transform="translate(-1381.764 -1058.326)"/><path class="d" d="M2777.727,724.43s-6.412,7.424-4.722,16.532-.9,16.366-.283,20.752,9.56,25.247,24.237,20.919c0,0,2.658,13.1-8.642,15.126,0,0,1.387,30.254,10.329,31.434s34.208-35.107,34.208-35.107-15.65-.826-15.65-8.079.505-18.558,5.558-26.148-2.68-30.714-9.945-36.608S2777.727,724.43,2777.727,724.43Z" transform="translate(-1265.696 -273.683)"/><path class="e" d="M2834.254,726.732s14.457,4.563,14.227,15.585,2.7,19.793,6.97,22.717,3.6,26.192,0,31.429-8.99,10.757-15.4,7.883-18.56,25.112-3.04,24.727,38.935-29.392,38.935-29.392l-8.006-4.331a12.057,12.057,0,0,1-7.929-5.51,33.615,33.615,0,0,1-.114-6.242c.169-4.836,1.293-13.833,2.136-14.227s8.606-12.26,7.929-19.007S2848.15,714.409,2834.254,726.732Z" transform="translate(-1308.785 -275.827)"/><path class="d" d="M2873.32,949.682s9.5-2.081,12.083-8.492" transform="translate(-1342.058 -440.732)"/><path class="d" d="M2722.31,1678.327v12.26s9,5.06,12.033,6.525,43.188,18.106,109.093-7.31V1677.43Z" transform="translate(-1227.542 -999.047)"/><path class="g" d="M2737.05,1032.527s-17.175,7.472-20.38,16.245c0,0-.508.844,2.866,2.023s8.772,52.8,1.351,70.685-6.242,64.95-6.242,64.95,20.919,15.015,55.67,12.485,70.854-13.5,70.854-13.5v-10.964a11.918,11.918,0,0,0,3.383-7.929c0-4.722-5.914-62.246-5.914-62.246l-17.714-70.685a1.635,1.635,0,0,0-.225-1.742c-.674-1.049-17.62-8.736-27.067-6.861l-9.447,1.875s-21.417,30.4-29.392,27.811S2748.66,1029.385,2737.05,1032.527Z" transform="translate(-1221.677 -504.057)"/><path class="c" d="M2769.308,713.109s-1.559-11.1,9.763-14.773,22.042,1.651,23.843,7.385,1.8,23.579,4.423,22.156,1.208-6.223,7.2-7.649,6.15,8.023,5.024,9.667a23.361,23.361,0,0,0-5.177,16.247s-.222,2.574,1.653-.425,10.046-12.823,11.472-20.469,1.276-37.26-18.057-39.885S2760.973,687.318,2769.308,713.109Z" transform="translate(-1262.073 -246.237)"/><path class="d" d="M2597.12,1315.82s15.07,15.745,45.549,7.873,31.828-8.548,35.989,3.142,25.979,65.342,26.653,74.9c.331,4.7-4.048,3.035-10.8,13.944l-1.013-11.02s-45.549-18.558-72.2-1.45C2621.3,1403.207,2613.991,1358.22,2597.12,1315.82Z" transform="translate(-1132.606 -724.826)"/><path class="d" d="M2626.888,1448.45s-5.95,5.474-4.976,9.821c0,0,.169,1.764,2.586,2.214,0,0-1.068,3.937,0,4.947s2.306,2.025,2.306,2.025-.537,1.846.631,2.712a6.044,6.044,0,0,0,2.126.437s-.394,3.318,1.692,3.712,5.454-1.742,5.51-2.25-.9-3.383-1.631-3.383c0,0,1.293-1.237.619-2.475s-1.124-.725-1.124-.725,2.7-2.194-.449-4.331c0,0,2.267-.205,2.1-1.95,0,0-1.312-3.56-7.144-3.035Z" transform="translate(-1151.325 -825.404)"/><path class="d" d="M2633,1498.25a41.1,41.1,0,0,0,9.667.674" transform="translate(-1159.815 -863.169)"/><path class="d" d="M2643.341,1476.284s-1.59-1.692-2.791-1.237" transform="translate(-1165.541 -845.514)"/><path class="d" d="M2642.49,1520.927a31.626,31.626,0,0,0,5.343-1.088c1.651-.638,2.475-.88,2.475-.88" transform="translate(-1167.012 -878.874)"/><path class="d" d="M2653.9,1534.132a15.38,15.38,0,0,0,5.558-1.912" transform="translate(-1175.664 -888.929)"/><path class="d" d="M2853.536,1325.22s4.48,2.658,1.208,7.615-17.995,8.458-17.995,8.458,16.308,4.722,26.808,24.256" transform="translate(-1314.326 -731.955)"/><path class="d" d="M2974.08,1551.77s4.217,12.083,5.285,31.828" transform="translate(-1418.468 -903.755)"/><path class="d" d="M2811.5,1012.309s6.917,12.325,8.6,13.5V1042s4.556-12.82,6.073-14.846c0,0,16.825-10.476,20.2-15.2,0,0,2.24-4.108,6.626-1.068a10.964,10.964,0,0,0,8.942,1.593s-22.463,28.06-25.924,31.1c0,0-.37-3.813-1.887-5.483,0,0-4.635,6.607-11.532,6.682s-10.648-6.525-10.648-6.525a11.355,11.355,0,0,0-1.349,3s-.9,2.55-2.55-4.647-6.672-17.4-8.023-17.62c0,0,7.649-3.9,9-5.7S2811.5,1012.309,2811.5,1012.309Z" transform="translate(-1286.479 -492.733)"/><path class="d" d="M2849.35,1088.48s5.962-13.27,8.154-12.446" transform="translate(-1323.881 -542.961)"/><path class="d" d="M2908.22,1081.73s3.888,2.453,7.953,10.938" transform="translate(-1368.524 -547.308)"/><path class="d" d="M2983.831,1257.187l3,10.2s-14.094,10.723-19.382,17.808-15.181,11.134-15.181,11.134-9.222-6.972-13.667-4.555c0,0,1.576,4.275,1.013,5.454s-7.066,5.1-9.391,4.949-1.049,4.725,1.5,6.073,5.1,6.6,8.173,7.424,17.543-8.847,19.718-9.449,51.584-20.7,53.73-32.277-7.086-33.514-7.086-33.514Z" transform="translate(-1384.284 -667.655)"/><path class="e" d="M3174.71,1257.851s3.482-1.334,9.763-3.509,16.03,18.671,7.707,26.243c0,0,6.581-3.992,7.366-9.785s-1.293-14.9-6.3-28.517S3174.71,1257.851,3174.71,1257.851Z" transform="translate(-1570.612 -666.315)"/><path class="d" d="M3168.29,1342.766s5.848-4.35,12.371-2.472" transform="translate(-1565.743 -743.029)"/><path class="d" d="M3105.828,1061.194s-13.833,2.361-15.351,18.558,5.9,42.343,5.9,42.343a51.907,51.907,0,0,1,10.459,1.013c6.411,1.182,14.341-9.447,20.414-11.977a84.052,84.052,0,0,1,7.927-3.038S3117.975,1058.659,3105.828,1061.194Z" transform="translate(-1506.581 -531.664)"/><path class="j" d="M3119.124,1644.38s-21.875,7.2-38.014,7.975" transform="translate(-1499.632 -973.984)"/><path class="j" d="M3092.375,1057.3s-16.477,3.207-12.878,26.318" transform="translate(-1498.019 -528.782)"/><rect class="f" width="113.175" height="7.141" transform="translate(1289.201 653.097)"/><path class="h" d="M2015.86,1516.647s1.8-15.015,7.424-12.429,8.323,4.161,11.472-.9,6.636-6.22,10.853-1.933,6.917,9.908,6.917,15.256Z" transform="translate(-691.818 -863.549)"/><path class="c" d="M1994.781,1440.037V1421.32h-1.547v18.717h-2.325v2.554h6.2v-2.554Z" transform="translate(-672.897 -804.83)"/><path class="g" d="M2015.808,1421.322l-15.218,0v11.112l15.218-.024-4.8-5.522Z" transform="translate(-680.238 -804.83)"/><line class="d" x2="3.231" y2="2.119" transform="translate(1407.149 554.942)"/><path class="d" d="M2001.988,1057.78s-2.8,5.193-4.038,6.042" transform="translate(-678.236 -529.146)"/><path class="d" d="M2006,1083.69s-1.358,3.768-2.932,4.947" transform="translate(-682.119 -548.794)"/><path class="d" d="M2005.624,1107.2s-1.486,2.257-2.554,2.658" transform="translate(-682.119 -566.623)"/><line class="d" x1="3.804" y2="0.967" transform="translate(1308.073 531.341)"/><ellipse cx="1.682" cy="1.015" rx="1.682" ry="1.015" transform="matrix(0.159, -0.987, 0.987, 0.159, 1323.063, 510.293)"/><ellipse cx="1.682" cy="1.015" rx="1.682" ry="1.015" transform="matrix(0.159, -0.987, 0.987, 0.159, 1341.819, 510.295)"/><path class="d" d="M2062.57,981.94a60,60,0,0,1,0,7.122c-.278,1.124-3.4,1.518-3.4,1.518" transform="translate(-724.661 -471.634)"/><path class="d" d="M2029.92,1027.35a8.98,8.98,0,0,0,8.04,3.113" transform="translate(-702.48 -506.07)"/><path class="j" d="M1352.562,1843.15s-26.148,18.089-32.221,54.858" transform="translate(-164.382 -1124.718)"/><path class="j" d="M3210,1181.54s5.558,13.326,0,22.1" transform="translate(-1597.373 -622.997)"/><path class="j" d="M1962.56,1234.59s9.667,7.422,18.751,0" transform="translate(-651.399 -663.227)"/><path class="e" d="M1776.89,1150.939s10.38,6.373,9.183,12.9a86.072,86.072,0,0,1-3.448,12.6s5.164-7.881,10.759-12.325c0,0-1.423-11.153-15.426-14.638Z" transform="translate(-510.599 -598.678)"/><path class="g" d="M2854.69,1154.65s8.161,6.2,17.746,1.208" transform="translate(-1327.93 -602.606)"/><ellipse cx="1.162" cy="1.762" rx="1.162" ry="1.762" transform="translate(1510.003 476.086)"/><ellipse cx="1.162" cy="1.762" rx="1.162" ry="1.762" transform="translate(1525.448 476.386)"/><path class="d" d="M2810.725,850.89s-3.383,10.57-1.348,11.583a9.025,9.025,0,0,0,4.35.788" transform="translate(-1293.073 -372.255)"/><path class="d" d="M2805.36,917.446s6.467,6.525,12.371-1.406" transform="translate(-1290.522 -421.66)"/><path class="d" d="M2776.07,807.1s3.142-4.128,6.525-3.383" transform="translate(-1268.31 -336.415)"/><path class="d" d="M2844.3,805.408s5.546-1.494,7.047,2.484" transform="translate(-1320.051 -337.556)"/></g></svg>