<svg xmlns="http://www.w3.org/2000/svg" width="720.022" height="580.692" viewBox="0 0 720.022 580.692"><defs><style>.a,.k{fill:#feeed3;}.b,.c{fill:#fff;}.b,.d,.e,.l,.m{stroke:#000;}.b,.d,.e,.m,.n,.o{stroke-linecap:round;}.b,.d,.o{stroke-linejoin:round;}.c,.h,.j,.k{stroke:#707070;}.d,.e,.l,.n,.o{fill:none;}.e,.l,.m,.n{stroke-miterlimit:10;}.f,.m{fill:#fcaa23;}.g,.h{fill:#0b065a;}.i{fill:#ea8b00;}.j{fill:#4052f2;}.n,.o{stroke:#fff;}</style></defs><g transform="translate(-727.781 -434.081)"><path class="a" d="M1434.109,934.2q-2.646,5.583-5.806,10.868-1.217,2.03-2.508,4.02-1.916,2.948-4.02,5.788a120.165,120.165,0,0,1-26.781,26.414c-128.1,92.081-462.907,53.235-462.907,53.235s-6.67-.721-17.6-2.68a424.785,424.785,0,0,1-42.224-9.825c-7.4-2.126-15.162-4.587-23.083-7.42-30.349-10.857-63.047-27.207-86.851-51.469a134.233,134.233,0,0,1-11.547-13.353,111.988,111.988,0,0,1-23-69.657c.25-42.874,10.719-86.383,29.608-125.186q4.334-8.9,9.256-17.456,4.5-7.831,9.481-15.316h0c42.457-63.8,146.969-159.09,229.826-151.531,142.6,13.008,117.1,96.422,242.284,56.324C1371,587.616,1488.6,819.487,1434.109,934.2Z" transform="translate(0 -105.726)"/><path class="b" d="M3604.356,1788.32l24.414,2.01c1.232.824,4.057,9.959-3.669,10.8-5.225.567-21.87-6.963-21.87-6.963Z" transform="translate(-2233.353 -1051.834)"/><path class="c" d="M1211.018,1751.42s4.135,4.529,5.978,6.5-7.476,3.769-7.476,3.769Z" transform="translate(-374.165 -1023.174)"/><path class="d" d="M1211.018,1751.42s4.135,4.529,5.978,6.5-7.476,3.769-7.476,3.769Z" transform="translate(-374.165 -1023.174)"/><path class="c" d="M1523.195,1960.21s3.649-8.932,5.741-10.839.73-6.134-4.16.331-6.029,10.75-6.029,10.75,3.055-11.342,4.689-12.849-2.061-3.066-4.272,3.126-2.887,7.965-2.887,7.965,2.789-8.986,1.391-8.792-4.243,4.207-3.461,11.085c0,0-4.261,3.812-4.415,8.595s7.574,4.832,9.211,2.41S1523.195,1960.21,1523.195,1960.21Z" transform="translate(-607.384 -1174.492)"/><path class="e" d="M1523.195,1960.21s3.649-8.932,5.741-10.839.73-6.134-4.16.331-6.029,10.75-6.029,10.75,3.055-11.342,4.689-12.849-2.061-3.066-4.272,3.126-2.887,7.965-2.887,7.965,2.789-8.986,1.391-8.792-4.243,4.207-3.461,11.085c0,0-4.261,3.812-4.415,8.595s7.574,4.832,9.211,2.41S1523.195,1960.21,1523.195,1960.21Z" transform="translate(-607.384 -1174.492)"/><path class="c" d="M1399.15,2002.705s7.382-11.835,8.6-18.088,9.765-14.8,7.8-15.586-5.806,3.752-9.895,10.5-6.455,8.789-8.083,8.077-4.466-10.683-8.01-10.993c0,0-1,.494.123,2.7s1.818,7.175.819,8.633-.067,11.165-.067,11.165l-30.516,46.574,13.988,11.134Z" transform="translate(-490.981 -1192.122)"/><path class="e" d="M1399.15,2002.705s7.382-11.835,8.6-18.088,9.765-14.8,7.8-15.586-5.806,3.752-9.895,10.5-6.455,8.789-8.083,8.077-4.466-10.683-8.01-10.993c0,0-1,.494.123,2.7s1.818,7.175.819,8.633-.067,11.165-.067,11.165l-30.516,46.574,13.988,11.134Z" transform="translate(-490.981 -1192.122)"/><path class="f" d="M1479.579,2110.684s5.529.357,8.039-.67a34.071,34.071,0,0,0,3.225-1.434l-4.966,10.6-9.216-4.147Z" transform="translate(-581.652 -1300.578)"/><path class="c" d="M3555.768,1518.92s-6.77,5.536-6.687,13.8-3.31,14.236-3.439,18.184,4.52,23.648,18.076,22.107c0,0,.326,11.918-9.915,11.96,0,0-3.43,26.8,4.243,29.2s35.445-25.582,35.445-25.582-13.622-3.126-12.505-9.5,3.3-16.223,8.908-22.107,2.347-27.384-3.126-33.685S3555.768,1518.92,3555.768,1518.92Z" transform="translate(-2188.622 -842.374)"/><path class="d" d="M3555.768,1518.92s-6.77,5.536-6.687,13.8-3.31,14.236-3.439,18.184,4.52,23.648,18.076,22.107c0,0,.326,11.918-9.915,11.96,0,0-3.43,26.8,4.243,29.2s35.445-25.582,35.445-25.582-13.622-3.126-12.505-9.5,3.3-16.223,8.908-22.107,2.347-27.384-3.126-33.685S3555.768,1518.92,3555.768,1518.92Z" transform="translate(-2188.622 -842.374)"/><path class="b" d="M3029.945,1699.068s-.842,19.749-2.264,22.571,13.639,8.262,13.639,8.262l12.059-10.33s-1.579-19.079-.86-27.258S3029.945,1699.068,3029.945,1699.068Z" transform="translate(-1786.252 -975.364)"/><path class="f" d="M3039.41,1715.3l21.839-5.42s-.478,14.515.8,18.809-14.961,13.327-16.994,12.784-3.573-8.039-3.573-8.039,10.9.605,14.22-7.237S3044.231,1718.169,3039.41,1715.3Z" transform="translate(-1795.435 -990.909)"/><path class="b" d="M2973.583,1470.468s-5.225,10.627-4.354,22.471c0,0,.871,2.177-1.48,9.1s2.874,24.036,16.591,25.343,22.208-2.092,29.132-15.459c0,0,5.21,2.919,8.485-3.483s-1.451-9.87-5.632-7.257c0,0,3.035-25.794-10.422-32.719S2973.583,1470.468,2973.583,1470.468Z" transform="translate(-1739.354 -801.358)"/><path class="f" d="M2992.71,1477.925s12.9-4.243,20.182-1.585,8.85,5.632,10.272,11.263,3.35,15.509,7.729,16.033-2.028-29.311-6.226-32.379-31.249-1.945-31.249-1.945Z" transform="translate(-1759.164 -803.905)"/><path class="b" d="M3002.839,1837.015s10.58-5.882,18.273,8.039-18.273,54.515-18.273,54.515l-18.159-52.324S2991.212,1829.985,3002.839,1837.015Z" transform="translate(-1752.927 -1088.347)"/><path class="d" d="M3060.207,1842.87s-2.262,54.372-1.514,56.189" transform="translate(-1810.295 -1094.202)"/><path class="g" d="M2973.416,1436.722s-4.673-8.508-23.67-2.631c-8.1,2.505-8.745,14.718-8.745,14.718l-.167,2.367s-10.953-.266-10.049-11.893,7.69-19.135,26.188-21.118c27.666-2.963,27.326,8.039,26.8,13.008,0,0,13.057.243,12.244,14.539-.248,4.35-2.117,13.65-3.778,17.214h0a6.109,6.109,0,0,0-4.2.8l-.069.042s-7.012,4.631-7.78-7.9C2979.459,1443.645,2979.2,1437.747,2973.416,1436.722Z" transform="translate(-1711.026 -763.948)"/><ellipse cx="1.737" cy="1.146" rx="1.737" ry="1.146" transform="matrix(0.155, -0.988, 0.988, 0.155, 1236.161, 696.159)"/><ellipse cx="1.737" cy="1.146" rx="1.737" ry="1.146" transform="matrix(0.155, -0.988, 0.988, 0.155, 1252.334, 698.817)"/><path class="c" d="M3031.5,1608.71s-4.913,9.785-3.088,11.082a8.937,8.937,0,0,0,4.126,1.436" transform="translate(-1786.574 -912.331)"/><path class="d" d="M3031.5,1608.71s-4.913,9.785-3.088,11.082a8.937,8.937,0,0,0,4.126,1.436" transform="translate(-1786.574 -912.331)"/><path class="b" d="M3019.62,1681.64s4.562,5.3,12.282.525" transform="translate(-1780.065 -968.976)"/><path class="b" d="M2995.93,1567.664a5.368,5.368,0,0,1,7.163-1.056" transform="translate(-1761.665 -878.917)"/><path class="b" d="M3082.16,1572.847s5.478-1.46,6.947,2.47" transform="translate(-1828.639 -884.27)"/><path class="c" d="M3011.493,1786.438c1.688,3.258,5.125,10.432,7.068,11.511,0,0,12.766-5.308,17.215-12.911,0,0,.478-.192,1.914,2.246a10.161,10.161,0,0,0,4.591,3.635s-7.938,10.788-10.234,16.439c0,0-7.461-11.849-13.485-9.41,0,0-5.359-2.01-10.33,6.552,0,0-2.407-13.55-3.3-14.825a27.5,27.5,0,0,1,4.305-2.63C3010.151,1786.574,3010.528,1784.58,3011.493,1786.438Z" transform="translate(-1768.655 -1049.282)"/><path class="d" d="M3011.493,1786.438c1.688,3.258,5.125,10.432,7.068,11.511,0,0,12.766-5.308,17.215-12.911,0,0,.478-.192,1.914,2.246a10.161,10.161,0,0,0,4.591,3.635s-7.938,10.788-10.234,16.439c0,0-7.461-11.849-13.485-9.41,0,0-5.359-2.01-10.33,6.552,0,0-2.407-13.55-3.3-14.825a27.5,27.5,0,0,1,4.305-2.63C3010.151,1786.574,3010.528,1784.58,3011.493,1786.438Z" transform="translate(-1768.655 -1049.282)"/><path class="h" d="M2874.973,1794.043s-10.915,28.136-15.5,43.234q-1.949,6.431-4.4,12.695l-2.251,5.73-9.6-63.371s-3.244,2.356-11.533,5.547-24.485,7.659-27.259,10.984c-3.727,4.466-14.775,52.208-10.184,73.913h130.695s-10.049-72.895-16.355-75.764S2879.328,1798.844,2874.973,1794.043Z" transform="translate(-1604.167 -1054.948)"/><path class="e" d="M2874.973,1794.043s-10.915,28.136-15.5,43.234q-1.949,6.431-4.4,12.695l-2.251,5.73-9.6-63.371s-3.244,2.356-11.533,5.547-24.485,7.659-27.259,10.984c-3.727,4.466-14.775,52.208-10.184,73.913h130.695s-10.049-72.895-16.355-75.764S2879.328,1798.844,2874.973,1794.043Z" transform="translate(-1604.167 -1054.948)"/><path class="d" d="M2989.429,1792.33c-2.762,1.865-8.039,3.2-8.039,3.2l2.025,29.012,7.46,3.188-4.845,5.359,13.007,22.612,18.458-19.55-3.479-5.044c1.34-1.244,7.932-2.1,7.932-2.1-.67-3.35,5.136-32.341,5.136-32.341s-5.444-1.632-5.913-2.628" transform="translate(-1750.372 -1054.948)"/><path class="d" d="M2871,1969.12l-3.227,36.9a114.809,114.809,0,0,1,17.717,1.424" transform="translate(-1662.123 -1192.26)"/><path class="c" d="M2936.142,2127.025s-16.451-4.913-18.889-5.018-10.346,11.346-9.582,14.6c0,0-.255,2.041,6.123,2.168s27.672,0,27.672,0Z" transform="translate(-1693.073 -1311.007)"/><path class="d" d="M2936.142,2127.025s-16.451-4.913-18.889-5.018-10.346,11.346-9.582,14.6c0,0-.255,2.041,6.123,2.168s27.672,0,27.672,0Z" transform="translate(-1693.073 -1311.007)"/><path class="f" d="M2917.136,2138.78s.447,9.379,3.828,10.9,13.454-.574,13.454-.574l-.167,2.336h-20.182s-5.806.071-4.948-2.7S2914.108,2141.328,2917.136,2138.78Z" transform="translate(-1694.172 -1324.035)"/><path class="c" d="M3027.226,2138.78h-1.659a18.875,18.875,0,0,0-2.742,8.262c-.413,4.846.462,5.583.462,5.583l2.827.223Z" transform="translate(-1782.467 -1324.035)"/><path class="d" d="M3027.226,2138.78h-1.659a18.875,18.875,0,0,0-2.742,8.262c-.413,4.846.462,5.583.462,5.583l2.827.223Z" transform="translate(-1782.467 -1324.035)"/><path class="h" d="M3078.937,1969.12s4.879,30.054,7.32,34.5c0,0-26.83-.141-47.49,1.724,0,0-2.731,10.272-1.657,14.664h61.631" transform="translate(-1793.454 -1192.26)"/><path class="e" d="M3078.937,1969.12s4.879,30.054,7.32,34.5c0,0-26.83-.141-47.49,1.724,0,0-2.731,10.272-1.657,14.664h61.631" transform="translate(-1793.454 -1192.26)"/><path class="c" d="M2384.963,1657.8s-2.048-3.4-5.922-.529,2.457,11.734,6.608,10.529S2384.963,1657.8,2384.963,1657.8Z" transform="translate(-1281.591 -949.15)"/><path class="d" d="M2384.963,1657.8s-2.048-3.4-5.922-.529,2.457,11.734,6.608,10.529S2384.963,1657.8,2384.963,1657.8Z" transform="translate(-1281.591 -949.15)"/><path class="c" d="M2616.214,1657.8s2.048-3.4,5.922-.529-2.456,11.734-6.61,10.529S2616.214,1657.8,2616.214,1657.8Z" transform="translate(-1464.899 -949.15)"/><path class="d" d="M2616.214,1657.8s2.048-3.4,5.922-.529-2.456,11.734-6.61,10.529S2616.214,1657.8,2616.214,1657.8Z" transform="translate(-1464.899 -949.15)"/><path class="f" d="M1797.058,1562.472s26.763-42.282,1.943-78.078c-20.767-29.965-29.967-28.6-43.544-20.276,0,0-4.113-8.724-17.98,3.126s1.052,31.213-17.217,42.874-5.187,44.364,8.443,47.521Z" transform="translate(-763.879 -796.03)"/><path class="i" d="M1813.631,1577.39a50.653,50.653,0,0,0-14.251,19.334c-4.931,12.168-2.631,42.258.612,45.554s48.714,1.262,53.934-4.122,8.075-35.648,5.737-42.635c0,0-27.895,12.951-30.026,7.177S1813.631,1577.39,1813.631,1577.39Z" transform="translate(-830.092 -888.005)"/><path class="f" d="M3577.909,1524.138s12,6.228,10.1,15.875-.67,17.8,2.63,21.028-.864,23.558-4.83,27.607-9.548,8.068-14.738,4.557-20.164,19.2-6.476,21.254,38.721-19.843,38.721-19.843l-6.373-5.033a10.789,10.789,0,0,1-6.118-6.06,30.032,30.032,0,0,1,.86-5.5c.891-4.223,3.262-11.951,4.064-12.168s9.441-9.448,9.885-15.477S3592.006,1515.447,3577.909,1524.138Z" transform="translate(-2198.982 -845.388)"/><path class="g" d="M3556.849,1504.392s.8-9.247,11.308-10.734,19.108,4.839,19.807,10.153-2.041,20.991.482,20.14,2.01-5.281,7.5-5.612,4.167,7.992,2.925,9.269a20.853,20.853,0,0,0-7.043,13.476s-.589,2.233,1.516-.121,10.8-9.72,13.224-16.219,7.673-21.857-8.1-35.17c-10.808-9.124-36.132-8.021-41.447,4.913C3555.788,1497.479,3556.21,1499.9,3556.849,1504.392Z" transform="translate(-2196.848 -815.163)"/><path class="b" d="M3416.993,1788.32s-3.22,7.836,2.782,17.418c0,0,21.3-4.636,21.649-15.727,0,0,2.354.726,9.156,6.21l-.637,1.246s15.018,6.253,21.116,10.294c6.657,4.4,12.7,7.885-3.584,51.806-7.146,19.282-14.1,41.648-25.68,34.873-7.816-4.575-34.645-15.408-34.645-15.408H3362s14.208-71.866,23.732-80.914c3.276-3.113,11.205-4.549,15.185-5.428,3.651-.806,8.606-1.425,8.606-1.425l.127-1.275Z" transform="translate(-2045.99 -1051.834)"/><path class="f" d="M3435.475,1910.7s-.639,1.838-1.664,5.393-13.621,58.01-13.621,58.01l4.846-.491S3436.266,1924.708,3435.475,1910.7Z" transform="translate(-2091.186 -1146.886)"/><path class="d" d="M3569.549,1801.59s-1.021,15.939-1.5,18.809c0,0,6.887-4.3,11.764-4.352,0,0,4.933,5.884,7.146,10.761,0,0,17.865-10.52,23-19.032" transform="translate(-2206.029 -1062.14)"/><path class="d" d="M3584.746,1866.33s-5.02,16.786-7.315,25.394a128.336,128.336,0,0,0-3.03,13.916" transform="translate(-2210.961 -1112.424)"/><line class="d" y1="26.464" x2="5.453" transform="translate(1334.281 800.753)"/><path class="b" d="M3446.1,2003.444s-2.273-.67,1.34-4.335,13.052-10.437,14.164-8-3.606,9.124-6.5,10.625S3446.1,2003.444,3446.1,2003.444Z" transform="translate(-2110.759 -1208.936)"/><path class="b" d="M3350.7,1930.72s-3.256-3.35-4.1-6.717-.549-5.944-4.466-10.478-4.075-7.146-5.951-5.861.657,8.249,1.661,9.675.913,2.932-.482,3.428-7.342-.828-9.156-.893-6.768-1.976-7.692-2.309-6.552-6.219-8.4-6.011-.723,2.28.6,3.689,3.778,4.6,3.778,4.6-9.85-3.028-11.7-2.2,1,2.861,5.228,4.437c0,0-2.05.538-.523,1.99s13.144,3.981,16.161,5.641,13.142,5.136,15.8,9.33S3350.7,1930.72,3350.7,1930.72Z" transform="translate(-2001.114 -1144.274)"/><path class="d" d="M3359.16,1963.4s6.029,2.861,8.644,4.147" transform="translate(-2043.784 -1187.818)"/><path class="d" d="M3330.18,1973.43s4.18,1.116,6.476,2.032,6.635,2.405,6.476,2.57" transform="translate(-2021.275 -1195.608)"/><path class="f" d="M3422.91,1999.63s-2.566,5.252-7.711,4.866-14.479-3.4-14.479-3.4,5.433,2.405,8.106,3.774,7.1,3.711,7.68,5.743,9.378-7.568,9.378-7.568S3424.006,2000.829,3422.91,1999.63Z" transform="translate(-2076.064 -1215.957)"/><path class="c" d="M1891.074,1743.886s.5,15.971-1.673,19.287,1.563,37.477,9.859,33.842,16.877-30.345,16.877-30.345-1.326-24.092.2-26S1891.074,1743.886,1891.074,1743.886Z" transform="translate(-901.756 -1014.49)"/><path class="d" d="M1891.074,1743.886s.5,15.971-1.673,19.287,1.563,37.477,9.859,33.842,16.877-30.345,16.877-30.345-1.326-24.092.2-26S1891.074,1743.886,1891.074,1743.886Z" transform="translate(-901.756 -1014.49)"/><path class="f" d="M1900.82,1760.8a23.233,23.233,0,0,0,14.792,1.978c8.606-1.594,2.854,12.4.248,14.633s-7.146,4.5-11.889-.893c0,0,2.716,26.044,5.2,25.535s15.877-32.136,15.877-32.136a147.784,147.784,0,0,1-.382-16.835c.447-6.313-23.847,4.171-23.847,4.171Z" transform="translate(-911.096 -1022.897)"/><path class="c" d="M1892.077,1558.723c-.592,5.612-6.7,7.693-6.7,7.693-2.679,12.145-13.148,22.024-26.736,21.884-14.861-.145-22.7-9.021-23.331-24.132-.261-6.253,1.19-7.228,1.221-13.03,0,0,5.449-6.65,7.2-10.435,2.3-4.973.366-10.1,7.25-10.522,8.352-.5,5.094,10.218,14.492,17.791,2.34,1.885,3.173,1.467,11.554,4.075,1.281,1.652,3.43.978,3.888,8.677,0,0,.594,1.244,1.407-.48a31.516,31.516,0,0,0,1.88-5.641,3.508,3.508,0,0,1,4.1-2.691C1890.6,1552.4,1892.541,1554.331,1892.077,1558.723Z" transform="translate(-860.19 -851.324)"/><path class="d" d="M1892.077,1558.723c-.592,5.612-6.7,7.693-6.7,7.693-2.679,12.145-13.148,22.024-26.736,21.884-14.861-.145-22.7-9.021-23.331-24.132-.261-6.253,1.19-7.228,1.221-13.03,0,0,5.449-6.65,7.2-10.435,2.3-4.973.366-10.1,7.25-10.522,8.352-.5,5.094,10.218,14.492,17.791,2.34,1.885,3.173,1.467,11.554,4.075,1.281,1.652,3.43.978,3.888,8.677,0,0,.594,1.244,1.407-.48a31.516,31.516,0,0,0,1.88-5.641,3.508,3.508,0,0,1,4.1-2.691C1890.6,1552.4,1892.541,1554.331,1892.077,1558.723Z" transform="translate(-860.19 -851.324)"/><path class="f" d="M1853.259,1632.782c0,3.294-4.546,5.962-10.156,5.962s-7.213-.335-7.213-3.629,1.606-8.3,7.213-8.3S1853.259,1629.491,1853.259,1632.782Z" transform="translate(-860.665 -926.397)"/><path class="f" d="M1968.574,1633.035c0,3.292-3.861,5.71-9.468,5.71s-10.156-2.679-10.156-5.962,4.546-5.962,10.156-5.962S1968.574,1629.743,1968.574,1633.035Z" transform="translate(-948.478 -926.397)"/><path class="c" d="M1801.346,1745.9s4.285-2.376,5.388-3.984c.893-1.309,2.039-.034,1.4,2.581s-8.416,9.883-8.416,9.883Z" transform="translate(-832.572 -1015.386)"/><path class="d" d="M1801.346,1745.9s4.285-2.376,5.388-3.984c.893-1.309,2.039-.034,1.4,2.581s-8.416,9.883-8.416,9.883Z" transform="translate(-832.572 -1015.386)"/><path class="c" d="M1767.114,1657.306s3.557-12.376,3.495-15.631,2.55-2.55,3.126,2.932-2.041,16.835-2.041,16.835a22.432,22.432,0,0,1,0,9.825c-1.275,4.6-2.68,13.845-2.68,13.845l-7.684-6.375Z" transform="translate(-802.754 -936.417)"/><path class="d" d="M1767.114,1657.306s3.557-12.376,3.495-15.631,2.55-2.55,3.126,2.932-2.041,16.835-2.041,16.835a22.432,22.432,0,0,1,0,9.825c-1.275,4.6-2.68,13.845-2.68,13.845l-7.684-6.375Z" transform="translate(-802.754 -936.417)"/><path class="c" d="M1742.63,1712.786s6.186-14.218,7.146-18.108,5.038-9.691,5.612-13.327,2.613-1.21,2.742.7-1.786,10.011-1.4,11.989-1.976,12.241-3.7,13.771-3.443,9.629-3.443,9.629Z" transform="translate(-788.23 -967.292)"/><path class="d" d="M1742.63,1712.786s6.186-14.218,7.146-18.108,5.038-9.691,5.612-13.327,2.613-1.21,2.742.7-1.786,10.011-1.4,11.989-1.976,12.241-3.7,13.771-3.443,9.629-3.443,9.629Z" transform="translate(-788.23 -967.292)"/><path class="c" d="M1732.35,1816.712l.509-3.635s9.694-.509,16.674,1.818v3.412Z" transform="translate(-780.245 -1071.025)"/><path class="d" d="M1732.35,1816.712l.509-3.635s9.694-.509,16.674,1.818v3.412Z" transform="translate(-780.245 -1071.025)"/><path class="c" d="M1908.774,1813.451a16.611,16.611,0,0,1-2.457,4.926c-2.112,3.238-7.023,11.54-11.23,13.262l-2.55,20.1V1831.9a31.937,31.937,0,0,1-6.775-8.735,48.94,48.94,0,0,1-3.827-10.049,40.279,40.279,0,0,0-3.35,3.555c-1.054,1.387,11.143,63.418,11.143,63.418l25.745-61.047A23.069,23.069,0,0,1,1908.774,1813.451Z" transform="translate(-893.776 -1071.096)"/><path class="d" d="M1908.774,1813.451a16.611,16.611,0,0,1-2.457,4.926c-2.112,3.238-7.023,11.54-11.23,13.262l-2.55,20.1V1831.9a31.937,31.937,0,0,1-6.775-8.735,48.94,48.94,0,0,1-3.827-10.049,40.279,40.279,0,0,0-3.35,3.555c-1.054,1.387,11.143,63.418,11.143,63.418l25.745-61.047A23.069,23.069,0,0,1,1908.774,1813.451Z" transform="translate(-893.776 -1071.096)"/><path class="h" d="M1738.328,1824.228s7.574,33.272,9.39,45.239,6.44,27.067,6.44,27.067-5.674,12.434-18.49,12.434-31.85-1.521-31.85-1.521-6.359-8-5.786-26.933,6.741-53.465,5.737-56.286c0,0,17.074-.77,20.321,1.48v2.09S1735.539,1828.245,1738.328,1824.228Z" transform="translate(-753.563 -1079.624)"/><path class="e" d="M1738.328,1824.228s7.574,33.272,9.39,45.239,6.44,27.067,6.44,27.067-5.674,12.434-18.49,12.434-31.85-1.521-31.85-1.521-6.359-8-5.786-26.933,6.741-53.465,5.737-56.286c0,0,17.074-.77,20.321,1.48v2.09S1735.539,1828.245,1738.328,1824.228Z" transform="translate(-753.563 -1079.624)"/><path class="h" d="M1851.13,1828.31a15.535,15.535,0,0,1-5.9,1.226c-2.367-.063-.065,33.86.7,33.54s8.039-1.021,8.162.319-2.916,7.146-2.535,7.666,11.239,9.841,11.239,9.841" transform="translate(-867.109 -1082.894)"/><path class="e" d="M1851.13,1828.31a15.535,15.535,0,0,1-5.9,1.226c-2.367-.063-.065,33.86.7,33.54s8.039-1.021,8.162.319-2.916,7.146-2.535,7.666,11.239,9.841,11.239,9.841" transform="translate(-867.109 -1082.894)"/><path class="h" d="M1924.3,1902.368s.67-7.815,1.273-15.6,23.771-52.737,24.117-54.108c0,0,20.437,4.845,24.135,5.931s9.437,6.252,13.581,24.929,9.484,48.174,6.029,50.755-65.856,0-65.856,0l-3.278-.257Z" transform="translate(-929.333 -1086.272)"/><path class="e" d="M1924.3,1902.368s.67-7.815,1.273-15.6,23.771-52.737,24.117-54.108c0,0,20.437,4.845,24.135,5.931s9.437,6.252,13.581,24.929,9.484,48.174,6.029,50.755-65.856,0-65.856,0l-3.278-.257Z" transform="translate(-929.333 -1086.272)"/><path class="c" d="M1819.836,2141.286c-5.274,1.746-13.318,1.751-13.318,1.751s.119.73-5.669,2.66c-4.319,1.44-10.7.956-14.515-1.116-2.813-1.527.67-6.2,1.592-7.188,3.62-3.921,9.662-11.812,16.12-10.2,5.846,1.462,12.172,2.51,15.379,3C1820.18,2131.941,1820.607,2136.443,1819.836,2141.286Z" transform="translate(-821.339 -1314.869)"/><path class="e" d="M1819.836,2141.286c-5.274,1.746-13.318,1.751-13.318,1.751s.119.73-5.669,2.66c-4.319,1.44-10.7.956-14.515-1.116-2.813-1.527.67-6.2,1.592-7.188,3.62-3.921,9.662-11.812,16.12-10.2,5.846,1.462,12.172,2.51,15.379,3C1820.18,2131.941,1820.607,2136.443,1819.836,2141.286Z" transform="translate(-821.339 -1314.869)"/><path class="f" d="M1805.041,2135.05v.223a29.356,29.356,0,0,0,3.222,13.751h0s3.126,4.37-6.331,4.279C1792.672,2153.207,1785.749,2149.518,1805.041,2135.05Z" transform="translate(-827.145 -1321.138)"/><path class="c" d="M1926.246,2135.05h-1.659a18.869,18.869,0,0,0-2.742,8.262c-.413,4.846.462,5.582.462,5.582l2.827.223Z" transform="translate(-927.34 -1321.138)"/><path class="d" d="M1926.246,2135.05h-1.659a18.869,18.869,0,0,0-2.742,8.262c-.413,4.846.462,5.582.462,5.582l2.827.223Z" transform="translate(-927.34 -1321.138)"/><path class="h" d="M1931.94,2138.164s1.659-13.074,1.659-14.479c0,0,45.717-4.718,53.624-1.465" transform="translate(-935.267 -1310.284)"/><path class="e" d="M1931.94,2138.164s1.659-13.074,1.659-14.479c0,0,45.717-4.718,53.624-1.465" transform="translate(-935.267 -1310.284)"/><path class="h" d="M2104.12,1984s5.427,20.51,6.889,30.626" transform="translate(-1068.998 -1203.818)"/><path class="e" d="M2104.12,1984s5.427,20.51,6.889,30.626" transform="translate(-1068.998 -1203.818)"/><path class="h" d="M1808.478,1840.66s-1.244,16.609-1.148,30.476,3.041,28.406-.69,39.3" transform="translate(-837.947 -1092.486)"/><path class="e" d="M1808.478,1840.66s-1.244,16.609-1.148,30.476,3.041,28.406-.69,39.3" transform="translate(-837.947 -1092.486)"/><path class="h" d="M1930.18,1887.538c7.13-3.827,16.4-11.165,16.4-11.165s-4.334-3.443-3.573-6.183,8.226-1.532,8.226-1.532c0-7.077,12.688-33.719,11.413-33.719s-7.166-.828-7.166-.828" transform="translate(-933.9 -1087.399)"/><path class="e" d="M1930.18,1887.538c7.13-3.827,16.4-11.165,16.4-11.165s-4.334-3.443-3.573-6.183,8.226-1.532,8.226-1.532c0-7.077,12.688-33.719,11.413-33.719s-7.166-.828-7.166-.828" transform="translate(-933.9 -1087.399)"/><path class="c" d="M1932.558,1986s-2.881,17.105-2.5,19.51" transform="translate(-933.779 -1205.371)"/><path class="d" d="M1932.558,1986s-2.881,17.105-2.5,19.51" transform="translate(-933.779 -1205.371)"/><ellipse class="c" cx="10.156" cy="5.962" rx="10.156" ry="5.962" transform="translate(971.333 698.996)"/><ellipse class="d" cx="10.156" cy="5.962" rx="10.156" ry="5.962" transform="translate(971.333 698.996)"/><ellipse class="c" cx="10.156" cy="5.962" rx="10.156" ry="5.962" transform="translate(999.523 698.996)"/><ellipse class="d" cx="10.156" cy="5.962" rx="10.156" ry="5.962" transform="translate(999.523 698.996)"/><path class="c" d="M1909.32,1638.314s3.157-4.558,7.923,0" transform="translate(-917.698 -933.751)"/><path class="d" d="M1909.32,1638.314s3.157-4.558,7.923,0" transform="translate(-917.698 -933.751)"/><path class="c" d="M1910.48,1666.682s-5.261-.192-4.879-2.68,2.679-5.5,3.3-8.262" transform="translate(-914.794 -948.859)"/><path class="d" d="M1910.48,1666.682s-5.261-.192-4.879-2.68,2.679-5.5,3.3-8.262" transform="translate(-914.794 -948.859)"/><path class="c" d="M1893.25,1730.72s2.423,2.233,7.715,1.722,5.739-1.722,5.739-1.722" transform="translate(-905.216 -1007.096)"/><path class="d" d="M1893.25,1730.72s2.423,2.233,7.715,1.722,5.739-1.722,5.739-1.722" transform="translate(-905.216 -1007.096)"/><path class="c" d="M2466.873,1760.723s.192,14.292-1.02,16.9,4.466,26.079,8.99,22.382,15.687-21.234,15.687-21.234-1.532-16.971,0-20.722S2466.873,1760.723,2466.873,1760.723Z" transform="translate(-1349.826 -1027.405)"/><path class="d" d="M2466.873,1760.723s.192,14.292-1.02,16.9,4.466,26.079,8.99,22.382,15.687-21.234,15.687-21.234-1.532-16.971,0-20.722S2466.873,1760.723,2466.873,1760.723Z" transform="translate(-1349.826 -1027.405)"/><path class="f" d="M2472.76,1780.6s3.8,3.093,10.884,2.776,7.8,2.68,7.416,6.44-4.144,12.058-12.753,9.053l-3.89-2.041.893,7.845s10.584,3.251,12.241-1.085,7.746-14.919,7.746-14.919-.42-13.4-.194-14.539-22.344,1.914-22.344,1.914Z" transform="translate(-1355.32 -1040.616)"/><path class="c" d="M2406.37,1554.765s1.184,12.344,1.376,18.088,5.893,17.4,18.326,21.7,25.282-9.155,28.279-18.088c1.621-4.828.317-25.153.6-29.362s-27.833-13.2-30.894-11.478S2406.37,1554.765,2406.37,1554.765Z" transform="translate(-1303.755 -855.4)"/><path class="d" d="M2406.37,1554.765s1.184,12.344,1.376,18.088,5.893,17.4,18.326,21.7,25.282-9.155,28.279-18.088c1.621-4.828.317-25.153.6-29.362s-27.833-13.2-30.894-11.478S2406.37,1554.765,2406.37,1554.765Z" transform="translate(-1303.755 -855.4)"/><path class="g" d="M2404.517,1517.076s-2.1.958-3.729,7.652-5.556,8.8-5.556,8.8-8.121-13.968-1.715-23.82,14.635-6.217,14.635-6.217,6.406-10.424,21.423-6.5,21.185,24.974,14.146,35.882c0,0-15.868-2.887-31.649-16.18C2412.074,1516.683,2407.237,1512.777,2404.517,1517.076Z" transform="translate(-1291.86 -824.875)"/><path class="h" d="M2337.576,1862.047s25.506,11.063,31.388,16.944,7.46,13.845,7.746,30.24-.717,36.329-.717,36.329l-116.053-7.318s-2.345-52.076,5.978-61.408c6.252-7.008,35.058-14.794,35.058-14.794l12.195,13.789Z" transform="translate(-1189.787 -1109.092)"/><path class="e" d="M2337.576,1862.047s25.506,11.063,31.388,16.944,7.46,13.845,7.746,30.24-.717,36.329-.717,36.329l-116.053-7.318s-2.345-52.076,5.978-61.408c6.252-7.008,35.058-14.794,35.058-14.794l12.195,13.789Z" transform="translate(-1189.787 -1109.092)"/><path class="c" d="M2438.262,1832.86s4.669,11.466,8.878,14.718l1.735,1.594a35.505,35.505,0,0,0,13.085-16.7s.223-1.409,2.2,1.786,7.076,4.272,7.076,4.272l-16.489,18.874h-12.268s-9.754-16.971-13.135-19c0,0,4.466-1.722,6.44-3.888S2437.483,1832.362,2438.262,1832.86Z" transform="translate(-1321.604 -1085.888)"/><path class="d" d="M2438.262,1832.86s4.669,11.466,8.878,14.718l1.735,1.594a35.505,35.505,0,0,0,13.085-16.7s.223-1.409,2.2,1.786,7.076,4.272,7.076,4.272l-16.489,18.874h-12.268s-9.754-16.971-13.135-19c0,0,4.466-1.722,6.44-3.888S2437.483,1832.362,2438.262,1832.86Z" transform="translate(-1321.604 -1085.888)"/><path class="j" d="M2285.637,1895.55h97.081a3.707,3.707,0,0,1,3.7,3.707v65.013H2281.93v-65.013A3.706,3.706,0,0,1,2285.637,1895.55Z" transform="translate(-1207.103 -1135.119)"/><path class="e" d="M2285.637,1895.55h97.081a3.707,3.707,0,0,1,3.7,3.707v65.013H2281.93v-65.013A3.706,3.706,0,0,1,2285.637,1895.55Z" transform="translate(-1207.103 -1135.119)"/><path class="k" d="M2077.707,2238.93q-1.217,2.03-2.508,4.02-1.916,2.947-4.019,5.788-3.051,4.142-6.476,8.039a120.817,120.817,0,0,1-20.3,18.365c-128.1,92.079-462.907,53.235-462.907,53.235s-6.67-.721-17.6-2.679v-89.636l470.178,2.626,12.226.067h0Z" transform="translate(-649.411 -1399.592)"/><path class="l" d="M2077.707,2238.93q-1.217,2.03-2.508,4.02-1.916,2.947-4.019,5.788-3.051,4.142-6.476,8.039a120.817,120.817,0,0,1-20.3,18.365c-128.1,92.079-462.907,53.235-462.907,53.235s-6.67-.721-17.6-2.679v-89.636l470.178,2.626,12.226.067h0Z" transform="translate(-649.411 -1399.592)"/><path class="f" d="M2075.183,2266.841q-1.916,2.948-4.019,5.788-3.051,4.143-6.476,8.04c-88.524,1.5-500.808-9.5-500.808-9.5v-4.334Z" transform="translate(-649.395 -1423.491)"/><path class="k" d="M2041.594,2197.34v.647q-2.647,5.582-5.806,10.868-1.217,2.03-2.508,4.019H1509.92v-15.528Z" transform="translate(-607.485 -1369.519)"/><path class="l" d="M2041.594,2197.34v.647q-2.647,5.582-5.806,10.868-1.217,2.03-2.508,4.019H1509.92v-15.528Z" transform="translate(-607.485 -1369.519)"/><path class="d" d="M2842.846,2134.38s-5.763.531-7.166,3.4" transform="translate(-1637.199 -1320.617)"/><path class="d" d="M3258.07,2123.182s8.175-.86,11.522,1.914" transform="translate(-1965.268 -1311.822)"/><ellipse class="c" cx="7.818" cy="5.022" rx="7.818" ry="5.022" transform="translate(1118.253 790.653)"/><ellipse class="d" cx="7.818" cy="5.022" rx="7.818" ry="5.022" transform="translate(1118.253 790.653)"/><path class="b" d="M1859.32,1597.781s3.369-1.787,7.576.817" transform="translate(-878.863 -903.378)"/><path class="b" d="M1944.7,1599.981a7.322,7.322,0,0,1,3.486-.194" transform="translate(-945.177 -905.274)"/><line class="d" x1="5.167" y2="6.398" transform="translate(976.969 701.118)"/><line class="d" x1="2.548" y2="3.423" transform="translate(981.373 703.853)"/><line class="d" x1="5.167" y2="6.398" transform="translate(1005.958 701.118)"/><line class="d" x1="2.548" y2="3.423" transform="translate(1010.362 703.853)"/><ellipse cx="1.46" cy="1.771" rx="1.46" ry="1.771" transform="translate(1112.61 710.054) rotate(-0.27)"/><ellipse cx="1.46" cy="1.63" rx="1.46" ry="1.63" transform="translate(1133.154 711.076) rotate(-0.27)"/><path class="c" d="M2495.609,1682.7s-2.957,8.242-1.155,9.021a9.052,9.052,0,0,0,3.872.594" transform="translate(-1371.718 -969.799)"/><path class="d" d="M2495.609,1682.7s-2.957,8.242-1.155,9.021a9.052,9.052,0,0,0,3.872.594" transform="translate(-1371.718 -969.799)"/><path class="b" d="M2447.715,1648.914s-5.9-4.783-10.745-3.254" transform="translate(-1327.522 -940.796)"/><path class="b" d="M2535.14,1651.776a11.207,11.207,0,0,1,9.055-3.488" transform="translate(-1403.77 -943.051)"/><path class="b" d="M2495.7,1753.526s4.973-.766,7.333,0" transform="translate(-1373.138 -1024.545)"/><path class="b" d="M3474.375,2015.492s-18.222-21.088-25.825-32.709c0,0,7.724-1.291,15.495-12.338,0,0,32.279,28.118,38.017,34,0,0,16.411-35.729,17.818-40.456" transform="translate(-2113.214 -1188.276)"/><path class="f" d="M3639.49,1964s-13.724,30.005-20.037,29.143-16.223-6.567-16.223-6.567,15.841,13.693,18.8,17.232C3622.035,2003.806,3636.485,1972.682,3639.49,1964Z" transform="translate(-2233.353 -1188.284)"/><path class="b" d="M3688.19,2145.16a36.487,36.487,0,0,1,6.958,8.1" transform="translate(-2299.118 -1139.183)"/><path class="b" d="M3626.58,1747.136s5.748-1.016,9.638-4.3" transform="translate(-2251.489 -1016.509)"/><ellipse cx="1.523" cy="1.005" rx="1.523" ry="1.005" transform="matrix(0.155, -0.988, 0.988, 0.155, 1362.524, 701.517)"/><ellipse cx="1.527" cy="1.008" rx="1.527" ry="1.008" transform="matrix(0.16, -0.987, 0.987, 0.16, 1381.332, 703.864)"/><path class="c" d="M3594.016,1632.57s-4.3,8.573-2.706,9.709a7.8,7.8,0,0,0,3.615,1.257" transform="translate(-2223.819 -930.863)"/><path class="d" d="M3594.016,1632.57s-4.3,8.573-2.706,9.709a7.8,7.8,0,0,0,3.615,1.257" transform="translate(-2223.819 -930.863)"/><path class="b" d="M3591.112,1703c-5.929,7.414-12.092.969-12.092.969Z" transform="translate(-2214.549 -985.566)"/><path class="b" d="M3562.861,1596.616a4.7,4.7,0,0,1,6.274-.925" transform="translate(-2201.998 -901.595)"/><path class="b" d="M3636.33,1600.294s5.23-.735,7.24,2.733" transform="translate(-2259.061 -905.744)"/><path class="b" d="M970.676,1998.142c-10.29,17.362-23.67,41.612-23.67,41.612-2.01-27.02-5.02-45.92-5.922-50.982-1.86-10.462-4.216-15.582-14.251-19.677-7.271-2.968-20.544-4.785-25.53-6.23l-2.409-.715a244.975,244.975,0,0,0-29.282,2.059c-1.3.183-2.61.382-3.9.6-1.34.223-2.68.469-3.988.732-6.922,1.4-13.155,3.365-16.971,6.145-8.023,5.862-12.087,36.622-14.019,59.2a134.551,134.551,0,0,0,11.542,13.372c23.8,24.262,56.5,40.612,86.852,51.469l2.15.762-2.15-20.473c3.126,3.9,18.851.741,25.861-8.095,17.82-22.464,33.272-59.191,33.272-59.191C983.159,1996.952,970.676,1998.142,970.676,1998.142Z" transform="translate(-79.96 -1186.847)"/><path class="c" d="M1010.585,1606.23s6.8.022,12.168,10.676c4.756,9.43,3.9,18.016,4.665,20.32s4.019,6.663,2.869,15.185-4.4,14.841-12.433,15.8-12.434,0-12.434,0l-1.148,15.877H979.213s-11.668-53.941-.382-62.359S1010.585,1606.23,1010.585,1606.23Z" transform="translate(-191.17 -910.405)"/><path class="d" d="M1010.585,1606.23s6.8.022,12.168,10.676c4.756,9.43,3.9,18.016,4.665,20.32s4.019,6.663,2.869,15.185-4.4,14.841-12.433,15.8-12.434,0-12.434,0l-1.148,15.877H979.213s-11.668-53.941-.382-62.359S1010.585,1606.23,1010.585,1606.23Z" transform="translate(-191.17 -910.405)"/><path class="f" d="M1007.2,1765.623s-3.062-3.848-1.277-6.387,9.948-7.9,14.738-21.1,3.256-17.022,5.761-18.566l3.774-3.5s-5.261-5.547-9.662,2.68-25.122,42.847-25.122,42.847v5.239Z" transform="translate(-207.867 -994.304)"/><path class="c" d="M993.655,1930.934s20.508.5,26.533-2.369c0,0,1.054-.848,1.532,1.2s.86,4.913.86,4.913-28.788,3.921-30.414,2.679S993.655,1930.934,993.655,1930.934Z" transform="translate(-204.982 -1160.626)"/><path class="d" d="M993.655,1930.934s20.508.5,26.533-2.369c0,0,1.054-.848,1.532,1.2s.86,4.913.86,4.913-28.788,3.921-30.414,2.679S993.655,1930.934,993.655,1930.934Z" transform="translate(-204.982 -1160.626)"/><path class="m" d="M988.507,1943.263s22.067.911,31.439-2.9c0,0,1.469,3.939,3.669,5.853,0,0-20.5,10.406-36.664,1.99Z" transform="translate(-201.296 -1169.922)"/><path class="d" d="M884.806,2150.76s-1.4,18.876-2.356,39.987" transform="translate(-120.131 -1333.339)"/><path class="f" d="M868.568,1255.728s110.839,9.542,128.089-6.608,6.605-27.893-24.59-33.031-117.446-3.669-131.032,16.149,12.844,30.463,33.031,31.564" transform="translate(-85.069 -605.423)"/><path class="c" d="M835.57,1229.838s110.839,9.544,128.089-6.605,6.605-27.884-24.59-33.02-117.446-3.682-131.027,16.136,12.847,30.463,33.031,31.564" transform="translate(-59.444 -585.323)"/><path class="d" d="M835.57,1229.838s110.839,9.544,128.089-6.605,6.605-27.884-24.59-33.02-117.446-3.682-131.027,16.136,12.847,30.463,33.031,31.564" transform="translate(-59.444 -585.323)"/><line class="d" x2="48.367" transform="translate(784.428 618.42)"/><line class="d" x2="50.766" transform="translate(843.465 618.42)"/><line class="d" x2="29.617" transform="translate(802.536 625.92)"/><line class="d" x2="29.617" transform="translate(766.937 625.92)"/><line class="d" x2="24.59" transform="translate(838.378 625.92)"/><line class="d" x2="37.669" transform="translate(784.978 633.26)"/><path class="g" d="M950.619,1575.187a8.6,8.6,0,0,1,4.553,7.653,62.861,62.861,0,0,1-1.058,10.719c-1.722,9.379,5.643,21.138,5.069,22.86s-3.827-8.512-6.409-9.278-8.709-.279-9.948,9.473-10.942,27.83-25.845,33.616c0,0-28.384-17.887-22.645-45.431C899.695,1579.07,929.657,1563.965,950.619,1575.187Z" transform="translate(-128.767 -883.376)"/><path class="g" d="M962.317,1915.71s-5.027,6.987-8.622,23.473,1.434,46.619,5.02,54.944c0,0,6.313-26.68,7.03-40.739S962.317,1915.71,962.317,1915.71Z" transform="translate(-174.506 -1150.777)"/><path class="b" d="M1135.01,1730.21s-6.887.147-4.02,7.894,8.224,4.1,8.608,2.959" transform="translate(-312.629 -1006.7)"/><path class="b" d="M1080.32,1872.21s2.2,2.157,7.746,2.581" transform="translate(-273.816 -1116.991)"/><path class="f" d="M1216.746,2178.31s-.605,1.418-1.467,9.884-1.148,65.514-.478,70.01c0,0,8.658,3.758,14.015,5.527l-2.182-19.651C1220.667,2239.017,1220.351,2224.885,1216.746,2178.31Z" transform="translate(-377.979 -1354.738)"/><path class="d" d="M1226.37,2175.88s1.925,37.712,4.209,50.5c1.516,8.486,1.264,12.409,5.85,15.631" transform="translate(-387.252 -1352.85)"/><path class="b" d="M1344.338,2309.68s2.559,18.433-2.048,22.223" transform="translate(-477.287 -1456.773)"/><path class="f" d="M863.581,2150.76s-7.1,26.919-8.021,32.756c0,0,4.019,4.727,5.65,6.212C861.21,2189.729,863.224,2152.5,863.581,2150.76Z" transform="translate(-99.245 -1333.339)"/><path class="n" d="M967.16,1974.68s-3.883,17.123-3.461,29.787" transform="translate(-183.211 -1196.579)"/><path class="n" d="M964.31,2128.08a89.085,89.085,0,0,0,1.34,10.665" transform="translate(-183.711 -1315.724)"/><path class="n" d="M1045.014,1586.561s-9.155-3.743-24.434,1.842" transform="translate(-227.416 -894.174)"/><path class="n" d="M975.549,1606.23s-5.326,2.347-8.4,6.136" transform="translate(-185.917 -910.405)"/><path class="b" d="M1142.8,1739.64s-3.553.462-2.01,4.814" transform="translate(-320.48 -1014.024)"/><line class="d" y1="9.225" x2="1.309" transform="translate(1343.635 763.814)"/><path class="f" d="M3681.992,1832.2s-13.4,14.883-18.727,18.981c0,0-.4.67-1.833.17a3.058,3.058,0,0,1-1.843-1.467s16.853-10.582,21.484-18.058Z" transform="translate(-2277.127 -1085.62)"/><path class="f" d="M3571.242,1872.47s-.478,2.287,1.878.956,8.3-4.147,8.3-4.147l.2-.769S3577.429,1868.7,3571.242,1872.47Z" transform="translate(-2208.477 -1114.117)"/><path class="f" d="M3691.454,2138s10.071,10.163,6.9,10.652c-.893.136-1.268-3.647-7.578-9.055Z" transform="translate(-2301.345 -1323.429)"/><path class="d" d="M3717.83,1648.068s4.2-2.816,5.53-.511.308,4.658-1.229,6.349" transform="translate(-2322.362 -941.799)"/><path class="b" d="M3186.051,1631.931s3.439-1.739,4.359,0a3.8,3.8,0,0,1-1.117,4.4" transform="translate(-1909.331 -929.766)"/><path class="o" d="M3065.9,1473.55s-3.548-4.984-16.248-3.551" transform="translate(-1803.389 -804.393)"/><path class="o" d="M3106.516,1463.823s-1.637-2.8-6.416-3" transform="translate(-1842.573 -797.466)"/><path class="o" d="M2467.69,1565.252s8.242-2.043,16.18,8.193" transform="translate(-1351.382 -878.448)"/><path class="o" d="M2545.65,1510.8a16.06,16.06,0,0,1,12.6,7.271" transform="translate(-1411.933 -836.285)"/><path class="o" d="M2608.48,1558a35.347,35.347,0,0,1,3.68,9.932" transform="translate(-1460.733 -872.945)"/><path class="f" d="M1347.765,2298.37a26.885,26.885,0,0,1,3.743,14.292,12.161,12.161,0,0,1-7.237,10.457s4.575-4.352,2.05-22.223Z" transform="translate(-478.825 -1447.988)"/><path class="o" d="M1923.38,1479.593s15.761-10.446,29.688,11.266" transform="translate(-928.618 -810.095)"/><path class="o" d="M2066,1549.78a43.149,43.149,0,0,1,9.727,17.476" transform="translate(-1039.391 -866.56)"/><path class="f" d="M3528.419,1270.989s55.826,7.657,64.506-5.3,3.326-22.382-12.385-26.5-59.144-2.945-65.982,12.951,6.476,24.443,16.634,25.327" transform="translate(-2163.026 -623.748)"/><path class="c" d="M3511.791,1250.189s55.826,7.657,64.5-5.3,3.328-22.382-12.384-26.5-59.144-2.945-65.981,12.951,6.476,24.443,16.634,25.327" transform="translate(-2150.109 -607.593)"/><path class="d" d="M3511.791,1250.189s55.826,7.657,64.5-5.3,3.328-22.382-12.384-26.5-59.144-2.945-65.981,12.951,6.476,24.443,16.634,25.327" transform="translate(-2150.109 -607.593)"/><path class="g" d="M3675.23,1262.259c1.016-4.044,3.993-5.857,7.995-4.913,3.773.893,5.685,3.2,4.933,6.384-1.023,4.312-5.484,3.8-6.291,7.2l-3.662-.869c1.042-4.4,4.586-3.8,5.252-6.608.3-1.277-.33-2.025-1.608-2.329-1.418-.335-2.407.3-2.852,2.052Zm6.029,13.414a2.343,2.343,0,0,1-2.947,1.82,2.317,2.317,0,0,1-1.787-2.941,2.28,2.28,0,0,1,2.9-1.786,2.329,2.329,0,0,1,1.824,2.907Z" transform="translate(-2289.275 -639.238)"/><path class="d" d="M2062.521,1639.122s2.559-4.287,4.5.4" transform="translate(-1036.688 -934.558)"/><line class="b" x2="71.935" transform="translate(1079.492 763.508)"/><path class="a" d="M2531.815,438.2c-19.032,6.583-29.172,27.538-21.946,46.331,3.776,9.81,12.646,19.9,31.361,27.06,49.9,19.106,98.617-12.6,89.1-44.853C2622.741,441.037,2565.833,426.453,2531.815,438.2Z" transform="translate(-1382.326 0)"/></g></svg>