<svg xmlns="http://www.w3.org/2000/svg" width="58" height="48" viewBox="0 0 58 48"><defs><style>.a{fill:#e8505b;}</style></defs><g transform="translate(0 -5)"><path class="a" d="M58,13H54V9H50V5H8V9H4v4H0V45H4v4H8v4H50V49h4V45h4ZM2,43V15H4V43Zm4,4V11H8V47Zm42,4H10V7H48V51Zm4-4H50V11h2V47Zm4-4H54V15h2Z"/><circle class="a" cx="1" cy="1" r="1" transform="translate(16 13)"/><circle class="a" cx="1" cy="1" r="1" transform="translate(13 10)"/><circle class="a" cx="1" cy="1" r="1" transform="translate(19 10)"/><circle class="a" cx="1" cy="1" r="1" transform="translate(13 16)"/><circle class="a" cx="1" cy="1" r="1" transform="translate(19 16)"/><circle class="a" cx="1" cy="1" r="1" transform="translate(22 13)"/><circle class="a" cx="1" cy="1" r="1" transform="translate(28 13)"/><circle class="a" cx="1" cy="1" r="1" transform="translate(25 10)"/><circle class="a" cx="1" cy="1" r="1" transform="translate(31 10)"/><circle class="a" cx="1" cy="1" r="1" transform="translate(25 16)"/><circle class="a" cx="1" cy="1" r="1" transform="translate(31 16)"/><circle class="a" cx="1" cy="1" r="1" transform="translate(34 13)"/><circle class="a" cx="1" cy="1" r="1" transform="translate(40 13)"/><circle class="a" cx="1" cy="1" r="1" transform="translate(37 10)"/><circle class="a" cx="1" cy="1" r="1" transform="translate(43 10)"/><circle class="a" cx="1" cy="1" r="1" transform="translate(37 16)"/><circle class="a" cx="1" cy="1" r="1" transform="translate(43 16)"/><circle class="a" cx="1" cy="1" r="1" transform="translate(16 19)"/><circle class="a" cx="1" cy="1" r="1" transform="translate(16 25)"/><circle class="a" cx="1" cy="1" r="1" transform="translate(13 22)"/><circle class="a" cx="1" cy="1" r="1" transform="translate(19 22)"/><circle class="a" cx="1" cy="1" r="1" transform="translate(13 28)"/><circle class="a" cx="1" cy="1" r="1" transform="translate(19 28)"/><circle class="a" cx="1" cy="1" r="1" transform="translate(22 19)"/><circle class="a" cx="1" cy="1" r="1" transform="translate(28 19)"/><circle class="a" cx="1" cy="1" r="1" transform="translate(22 25)"/><circle class="a" cx="1" cy="1" r="1" transform="translate(28 25)"/><circle class="a" cx="1" cy="1" r="1" transform="translate(25 22)"/><circle class="a" cx="1" cy="1" r="1" transform="translate(31 22)"/><circle class="a" cx="1" cy="1" r="1" transform="translate(25 28)"/><circle class="a" cx="1" cy="1" r="1" transform="translate(31 28)"/><circle class="a" cx="1" cy="1" r="1" transform="translate(34 19)"/><circle class="a" cx="1" cy="1" r="1" transform="translate(40 19)"/><circle class="a" cx="1" cy="1" r="1" transform="translate(34 25)"/><circle class="a" cx="1" cy="1" r="1" transform="translate(40 25)"/><circle class="a" cx="1" cy="1" r="1" transform="translate(37 22)"/><circle class="a" cx="1" cy="1" r="1" transform="translate(43 22)"/><circle class="a" cx="1" cy="1" r="1" transform="translate(37 28)"/><circle class="a" cx="1" cy="1" r="1" transform="translate(43 28)"/><circle class="a" cx="1" cy="1" r="1" transform="translate(16 31)"/><circle class="a" cx="1" cy="1" r="1" transform="translate(16 37)"/><circle class="a" cx="1" cy="1" r="1" transform="translate(13 34)"/><circle class="a" cx="1" cy="1" r="1" transform="translate(19 34)"/><circle class="a" cx="1" cy="1" r="1" transform="translate(13 40)"/><circle class="a" cx="1" cy="1" r="1" transform="translate(19 40)"/><circle class="a" cx="1" cy="1" r="1" transform="translate(22 31)"/><circle class="a" cx="1" cy="1" r="1" transform="translate(28 31)"/><circle class="a" cx="1" cy="1" r="1" transform="translate(22 37)"/><circle class="a" cx="1" cy="1" r="1" transform="translate(28 37)"/><circle class="a" cx="1" cy="1" r="1" transform="translate(25 34)"/><circle class="a" cx="1" cy="1" r="1" transform="translate(31 34)"/><circle class="a" cx="1" cy="1" r="1" transform="translate(25 40)"/><circle class="a" cx="1" cy="1" r="1" transform="translate(31 40)"/><circle class="a" cx="1" cy="1" r="1" transform="translate(34 31)"/><circle class="a" cx="1" cy="1" r="1" transform="translate(40 31)"/><circle class="a" cx="1" cy="1" r="1" transform="translate(34 37)"/><circle class="a" cx="1" cy="1" r="1" transform="translate(40 37)"/><circle class="a" cx="1" cy="1" r="1" transform="translate(37 34)"/><circle class="a" cx="1" cy="1" r="1" transform="translate(43 34)"/><circle class="a" cx="1" cy="1" r="1" transform="translate(37 40)"/><circle class="a" cx="1" cy="1" r="1" transform="translate(43 40)"/><circle class="a" cx="1" cy="1" r="1" transform="translate(16 43)"/><circle class="a" cx="1" cy="1" r="1" transform="translate(13 46)"/><circle class="a" cx="1" cy="1" r="1" transform="translate(19 46)"/><circle class="a" cx="1" cy="1" r="1" transform="translate(22 43)"/><circle class="a" cx="1" cy="1" r="1" transform="translate(28 43)"/><circle class="a" cx="1" cy="1" r="1" transform="translate(25 46)"/><circle class="a" cx="1" cy="1" r="1" transform="translate(31 46)"/><circle class="a" cx="1" cy="1" r="1" transform="translate(34 43)"/><circle class="a" cx="1" cy="1" r="1" transform="translate(40 43)"/><circle class="a" cx="1" cy="1" r="1" transform="translate(37 46)"/><circle class="a" cx="1" cy="1" r="1" transform="translate(43 46)"/></g></svg>