<svg xmlns="http://www.w3.org/2000/svg" width="53" height="49.467" viewBox="0 0 53 49.467"><defs><style>.a{fill:#e8505b;}</style></defs><g transform="translate(0 -2)"><path class="a" d="M53,4.131A2.133,2.133,0,0,0,50.869,2H2.131A2.133,2.133,0,0,0,0,4.131V14.367H2.65v33.2a3.9,3.9,0,0,0,3.9,3.9H46.455a3.9,3.9,0,0,0,3.9-3.9v-33.2H53ZM6.546,49.7a2.131,2.131,0,0,1-2.129-2.129V42.683A7.964,7.964,0,0,1,11.434,49.7Zm42.038-2.129A2.131,2.131,0,0,1,46.455,49.7H41.566a7.964,7.964,0,0,1,7.017-7.017Zm0-6.659A9.726,9.726,0,0,0,39.8,49.7H13.2a9.726,9.726,0,0,0-8.788-8.788V14.367H48.583ZM51.233,12.6H1.767V4.131a.365.365,0,0,1,.364-.364H50.869a.365.365,0,0,1,.364.364Z"/><circle class="a" cx="1" cy="1" r="1" transform="translate(8.681 8)"/><circle class="a" cx="1" cy="1" r="1" transform="translate(5 5)"/><circle class="a" cx="1" cy="1" r="1" transform="translate(9.672 5)"/><circle class="a" cx="1" cy="1" r="1" transform="translate(5 10.194)"/><circle class="a" cx="1" cy="1" r="1" transform="translate(9.672 10.194)"/><circle class="a" cx="1" cy="1" r="1" transform="translate(12.31 8)"/><circle class="a" cx="1" cy="1" r="1" transform="translate(17.586 8)"/><circle class="a" cx="1" cy="1" r="1" transform="translate(14.948 5)"/><circle class="a" cx="1" cy="1" r="1" transform="translate(20.224 5)"/><circle class="a" cx="1" cy="1" r="1" transform="translate(14.948 10.194)"/><circle class="a" cx="1" cy="1" r="1" transform="translate(20.224 10.194)"/><circle class="a" cx="1" cy="1" r="1" transform="translate(22.862 8)"/><circle class="a" cx="1" cy="1" r="1" transform="translate(28.138 8)"/><circle class="a" cx="1" cy="1" r="1" transform="translate(25.5 5)"/><circle class="a" cx="1" cy="1" r="1" transform="translate(30.776 5)"/><circle class="a" cx="1" cy="1" r="1" transform="translate(25.5 10.194)"/><circle class="a" cx="1" cy="1" r="1" transform="translate(30.776 10.194)"/><circle class="a" cx="1" cy="1" r="1" transform="translate(33.414 8)"/><circle class="a" cx="1" cy="1" r="1" transform="translate(38.69 8)"/><circle class="a" cx="1" cy="1" r="1" transform="translate(36.052 5)"/><circle class="a" cx="1" cy="1" r="1" transform="translate(41.328 5)"/><circle class="a" cx="1" cy="1" r="1" transform="translate(36.052 10.194)"/><circle class="a" cx="1" cy="1" r="1" transform="translate(41.328 10.194)"/><circle class="a" cx="1" cy="1" r="1" transform="translate(42.319 8)"/><circle class="a" cx="1" cy="1" r="1" transform="translate(46 5)"/><circle class="a" cx="1" cy="1" r="1" transform="translate(46 10.194)"/><path class="a" d="M24.5,31h10.99A3.509,3.509,0,0,0,39,27.5V26a1,1,0,0,0-2,0v1.5A1.507,1.507,0,0,1,35.495,29H24.5A1.507,1.507,0,0,1,23,27.5V26a1,1,0,0,0-2,0v1.5A3.509,3.509,0,0,0,24.5,31Z" transform="translate(-3.5 -3.005)"/></g></svg>