<svg xmlns="http://www.w3.org/2000/svg" width="23.934" height="17.5" viewBox="0 0 23.934 17.5"><defs><style>.a{fill:#ff7a7a;stroke:#ffefef;stroke-width:0.5px;}</style></defs><path class="a" d="M23.233,6.452,19.556,2.775a.686.686,0,0,0-.485-.2H16.08V2.525A2.528,2.528,0,0,0,13.556,0H2.525A2.528,2.528,0,0,0,0,2.525v9.192a2.528,2.528,0,0,0,2.525,2.525H3.01a3.444,3.444,0,0,0,6.751,0h3.912a3.444,3.444,0,0,0,6.751,0h2.324a.687.687,0,0,0,.687-.687V6.937A.686.686,0,0,0,23.233,6.452ZM18.786,3.947l2.3,2.3H16.08v-2.3ZM1.373,11.717V2.525A1.153,1.153,0,0,1,2.525,1.373H13.556a1.153,1.153,0,0,1,1.152,1.152v8.508a3.443,3.443,0,0,0-1.034,1.836H9.761a3.444,3.444,0,0,0-6.751,0H2.525A1.153,1.153,0,0,1,1.373,11.717Zm5.013,3.91a2.071,2.071,0,1,1,2.071-2.071A2.074,2.074,0,0,1,6.386,15.627Zm10.663,0a2.071,2.071,0,1,1,2.071-2.071A2.074,2.074,0,0,1,17.049,15.627Zm3.375-2.758a3.442,3.442,0,0,0-4.344-2.618V7.624h5.981v5.245H20.424Zm0,0" transform="translate(0.25 0.25)"/></svg>