<svg xmlns="http://www.w3.org/2000/svg" width="50.837" height="54" viewBox="0 0 50.837 54"><defs><style>.a{fill:#e8505b;}</style></defs><g transform="translate(-1.728)"><path class="a" d="M29.022,26.035a.917.917,0,0,0-.625,1.134c.025.085,2.468,8.778,1.8,28.087a.913.913,0,0,0,.882.946h.033a.915.915,0,0,0,.913-.883c.684-19.6-1.762-28.3-1.865-28.66A.917.917,0,0,0,29.022,26.035Z" transform="translate(-2.257 -2.203)"/><path class="a" d="M50.765,15.083A24.709,24.709,0,0,0,18.491,1.907a29.561,29.561,0,0,0-4.715,2.475.916.916,0,0,0,1,1.536A27.7,27.7,0,0,1,19.2,3.6,22.877,22.877,0,0,1,49.078,15.8c1.492,3.527,2.3,10.022,2.646,13.581a.914.914,0,0,0,.91.826c.029,0,.059,0,.091,0a.915.915,0,0,0,.821-1C53.109,24.726,52.273,18.646,50.765,15.083Z" transform="translate(-0.986 0)"/><path class="a" d="M10.078,9.566a.915.915,0,0,0-1.285-1.3C3.871,13.112-1.032,22.13,3.56,37.549a.914.914,0,0,0,.877.654.916.916,0,0,0,.877-1.176C1.884,25.511,3.531,16.016,10.078,9.566Z" transform="translate(0 -0.678)"/><path class="a" d="M28.285,6.013a18.994,18.994,0,0,0-8.1,1.47,19.22,19.22,0,0,0-11.1,22.959,23.315,23.315,0,0,1,.681,2.919c.328,2.241.345,6.367.345,12.91a.915.915,0,1,0,1.831,0c0-6.826-.017-10.8-.364-13.176a24.582,24.582,0,0,0-.731-3.152A17.4,17.4,0,0,1,28.22,7.84c6.508.234,13.886,5.971,16.111,12.529,1.926,5.674,1.942,15.34,1.7,24.045a.916.916,0,0,0,.891.94.936.936,0,0,0,.94-.891c.243-8.868.218-18.736-1.8-24.684C43.577,12.452,35.6,6.274,28.285,6.013Z" transform="translate(-0.561 -0.508)"/><path class="a" d="M29.023,12a13.657,13.657,0,0,0-2.945.319.915.915,0,1,0,.394,1.788A11.9,11.9,0,0,1,39.98,21.093c2.224,5.254,2.37,13.686,1.856,28.4a.913.913,0,0,0,.882.946h.033a.915.915,0,0,0,.913-.883c.535-15.306.372-23.576-2-29.178A13.7,13.7,0,0,0,29.023,12Z" transform="translate(-2.002 -1.017)"/><path class="a" d="M21.313,16.183a.915.915,0,0,0-1.052-1.5c-4.714,3.31-6.762,9.668-5.093,15.83a71.565,71.565,0,0,1,1.877,17.394.915.915,0,0,0,1.831,0,72.146,72.146,0,0,0-1.943-17.88C15.467,24.615,17.228,19.051,21.313,16.183Z" transform="translate(-1.09 -1.23)"/><path class="a" d="M39.1,47.921A.914.914,0,0,0,38.194,47h-.006a.915.915,0,0,0-.915.909c0,.688.018,1.693.043,2.779.036,1.579.076,3.368.037,4.519a.913.913,0,0,0,.883.945h.032a.915.915,0,0,0,.913-.884c.042-1.2,0-3.019-.036-4.623C39.12,49.581,39.1,48.6,39.1,47.921Z" transform="translate(-3.012 -3.982)"/><path class="a" d="M28.69,19a7.287,7.287,0,0,0-2.82.566,7.44,7.44,0,0,0-4.027,9.349c.69,2.1,1.273,13.063,1.273,23.95a.915.915,0,1,0,1.831,0c0-9.8-.522-21.962-1.364-24.522a5.625,5.625,0,0,1,2.993-7.087A5.488,5.488,0,0,1,33.75,24.19c1.709,4.045,2.217,11.367,2.341,16.8a.916.916,0,0,0,.915.894h.021a.916.916,0,0,0,.894-.936c-.129-5.589-.664-13.157-2.49-17.475A7.307,7.307,0,0,0,28.69,19Z" transform="translate(-1.669 -1.61)"/></g></svg>