<svg xmlns="http://www.w3.org/2000/svg" width="19.992" height="20" viewBox="0 0 19.992 20"><defs><style>.a{fill:#2bb1e2;}</style></defs><path class="a" d="M10,0A10,10,0,1,1,2.936,2.928,9.993,9.993,0,0,1,10,0Zm5.1,9.454a.546.546,0,0,1,0,1.092H10a.546.546,0,0,1-.469-.277l-.008-.008h0l-.008-.015h0v-.008h0l-.008-.015h0L9.5,10.207h0V10.2h0l-.008-.015h0l-.008-.008h0v-.015h0l-.008-.015h0v-.008h0l-.008-.015h0v-.015h0v-.015l-.008-.008h0v-.015h0v-.015h0v-.014h0v-.008h0v-.015h0V10h0V3.49A.535.535,0,0,1,10,2.952a.541.541,0,0,1,.546.538V9.454ZM16.3,3.7A8.907,8.907,0,1,0,18.916,10,8.882,8.882,0,0,0,16.3,3.7Z" transform="translate(-0.008)"/></svg>